<?xml version="1.0" encoding="UTF-8"?><svg id="a" xmlns="http://www.w3.org/2000/svg" viewBox="0 0 600 600"><defs><style>.b{fill:#fff;}</style></defs><path d="M299.73,516.07c-118.62,.03-214.39-95.69-215.84-213.34-1.5-121.62,97.56-220.59,219.37-218.85,117.85,1.68,214.56,98.59,212.85,219.38-1.66,117.42-97.57,213.13-216.38,212.81Zm212.33-215.79c.39-116.73-94.27-211.08-209.41-212.38-118.66-1.35-213.54,94.34-214.75,209.57-1.25,118.63,94.41,213.46,209.7,214.65,118.78,1.22,214.68-95.16,214.46-211.83Z"/><path class="b" d="M512.05,300.28c.22,116.67-95.68,213.06-214.46,211.83-115.29-1.19-210.95-96.02-209.7-214.65,1.21-115.23,96.09-210.92,214.75-209.57,115.15,1.31,209.8,95.65,209.41,212.38Zm-344.84-34.67c0,14.03-.03,27.16,.03,40.28,.01,2.21,.34,4.07,3.52,4.24,14.44,.79,28.07,4.93,41.29,10.6,26.47,11.35,50.06,27.54,73.83,43.5,27.47,18.44,54.8,37.11,82.86,54.63,16.55,10.33,34.69,17.9,54.74,18.33,11.19,.24,21.83-.79,29.93-10.94,26.19-32.82,41.28-69.9,44.56-111.72,.84-10.74,.52-10.74-9.29-15.27-61.16-28.27-126.15-39.16-192.81-40.8-29.89-.73-59.88,1.33-89.79,2.77-13.07,.63-26.07,2.88-38.86,4.37Zm330.9,22.85c-.12-2.53-.11-4.63-.32-6.71-3.57-35.13-14.82-67.58-35.75-96.07-8.91-12.13-18.73-24.22-30.36-33.57-15.84-12.74-35.63-16.73-55.91-16.52-18.65,.19-36.91,3.76-53.98,10.97-24.78,10.47-49.11,22.02-73.41,33.58-20.56,9.78-40.4,21.47-62.73,26.62-9.5,2.19-13.64,6.16-14.4,15.56-.79,9.83-2.66,19.58-4.08,29.59,113.64-13.71,224.48-11.27,330.95,36.56Zm-70.92,164.04l-.55-1.33c-29.95-1.05-55.54-14.12-79.96-29.56-21.5-13.59-42.3-28.31-63.31-42.67-24.31-16.61-48.38-33.6-75.55-45.41-12.18-5.29-24.71-9.39-38.08-9.93-.22,.7-.43,1.02-.39,1.31,3.73,26.77,10.09,52.85,20.76,77.75,12.21,28.52,28.35,54.31,53.5,73.37,18.6,14.1,39.3,23.08,63.1,22.37,40.36-1.2,76.88-14.03,109.68-37.5,3.71-2.65,7.21-5.59,10.81-8.4ZM177.92,195.22c2-.51,3-.63,3.88-1.01,18.77-8,37.84-15.39,56.22-24.21,26.81-12.86,52.9-27.21,81.09-37.05,21.9-7.65,44.12-12.61,67.52-9.16,1.68,.25,3.43,.03,5.14,.03-.41-1.33-.96-1.86-1.61-2.13-37.04-15.67-75.25-24.44-115.7-18.6-14.75,2.13-29.68,3.94-42.65,12.57-28.57,19-43.24,47.31-53.9,79.56Zm54.85,291.64c-48.6-43.44-67.75-100.71-77.31-162.63-14.45,2.55-24.15,9.94-28.04,24.03-3.22,11.67-2.46,23.48-.15,35.1,2.16,10.85,3.87,21.91,10.61,31.36,23.69,33.22,54.99,56.55,92.6,71.76,.7,.28,1.52,.27,2.29,.39Zm-79.56-219.55c-16.68,4.08-32.29,7.81-47.82,11.87-1.4,.37-3.17,2.95-3.16,4.5,.08,14.09-.24,28.25,1.09,42.24,1.12,11.74,4.29,23.29,6.55,34.93l1.83,.63c2.06-27.28,13.88-46.23,41.51-50.65v-43.52Zm-48.5-2.87c15.89-3.27,31.01-6.33,46.09-9.55,1.16-.25,2.88-1.46,3.01-2.41,1.94-13.6,3.66-27.24,5.48-41.26-11.32,.06-22.4-1.47-31.46-10.21-11.41,20.21-19.26,40.95-23.12,63.43Zm89.53-131.7l-.72-.67c-.67,.32-1.4,.55-1.99,.97-19.5,14.12-37.44,29.87-51.64,49.53-3.99,5.53-2.81,10.83,3.69,12.9,4.66,1.49,9.77,1.6,14.67,2.35,3.79,.58,5.58-1.03,6.64-4.76,5.74-20.12,14.21-38.98,26.57-55.98,1.01-1.39,1.86-2.89,2.78-4.34Z"/><path d="M167.22,265.62c12.8-1.49,25.79-3.74,38.86-4.37,29.91-1.44,59.9-3.51,89.79-2.77,66.66,1.64,131.64,12.53,192.81,40.8,9.8,4.53,10.13,4.53,9.29,15.27-3.28,41.83-18.37,78.9-44.56,111.72-8.1,10.14-18.73,11.18-29.93,10.94-20.05-.43-38.19-8-54.74-18.33-28.05-17.51-55.39-36.18-82.86-54.63-23.77-15.96-47.36-32.15-73.83-43.5-13.22-5.67-26.85-9.81-41.29-10.6-3.18-.17-3.51-2.03-3.52-4.24-.06-13.13-.03-26.25-.03-40.28Zm3.11,40.19c29.19,2.79,53.71,14.02,76.6,28.55,26.41,16.76,52.06,34.72,77.97,52.26,21.24,14.38,42.44,28.81,66.22,38.85,12.72,5.37,25.87,8.89,39.83,7.53,6.79-.66,13.2-1.97,18.1-7.95,26.46-32.27,41.6-69.04,44.9-110.65,.64-8.03,.45-7.97-6.84-11.38-43.75-20.47-90.08-31.45-137.82-36.85-58.56-6.62-117.04-5.2-175.4,2.74-2.43,.33-3.6,1.07-3.58,3.62,.05,10.96,.02,21.92,.02,33.28Z"/><path d="M498.12,288.47c-106.47-47.83-217.31-50.28-330.95-36.56,1.43-10.01,3.29-19.75,4.08-29.59,.76-9.4,4.9-13.37,14.4-15.56,22.33-5.15,42.17-16.84,62.73-26.62,24.3-11.56,48.63-23.11,73.41-33.58,17.07-7.21,35.33-10.78,53.98-10.97,20.27-.2,40.06,3.78,55.91,16.52,11.63,9.35,21.45,21.44,30.36,33.57,20.94,28.49,32.18,60.94,35.75,96.07,.21,2.08,.21,4.18,.32,6.71Zm-326.63-41.2c110.45-13.01,218.27-9.89,322.05,34.65-.33-3.34-.49-6.31-.92-9.23-5.16-35.43-18.93-67.16-41.44-94.96-10.17-12.56-20.87-24.5-36.63-30.8-24.36-9.74-48.83-8.61-73.54-2.25-27.62,7.11-52.91,19.88-78.22,32.54-27.06,13.54-53.5,28.53-83.29,35.72-.99,.24-2.29,1.48-2.46,2.43-1.93,10.41-3.66,20.85-5.55,31.9Z"/><path d="M427.2,452.51c-3.6,2.81-7.1,5.75-10.81,8.4-32.8,23.47-69.32,36.3-109.68,37.5-23.81,.71-44.5-8.28-63.1-22.37-25.15-19.05-41.29-44.84-53.5-73.37-10.66-24.9-17.02-50.99-20.76-77.75-.04-.29,.17-.61,.39-1.31,13.37,.55,25.9,4.64,38.08,9.93,27.18,11.81,51.25,28.8,75.55,45.41,21.01,14.36,41.81,29.08,63.31,42.67,24.43,15.44,50.02,28.51,79.96,29.56l.55,1.33Zm-10.12,2.96c-.96-.78-1.18-1.12-1.43-1.15-18.95-2.49-36.23-9.75-52.9-18.65-30.93-16.51-58.82-37.66-87.6-57.45-22.77-15.65-45.62-31.2-71.26-41.97-9.46-3.97-19.15-7.23-29.6-8.19-.08,.89-.22,1.38-.15,1.84,3.8,24.43,9.84,48.25,19.62,71.02,11.84,27.58,27.47,52.46,51.48,71.25,16.53,12.94,35.13,21.97,56.19,22.2,35.71,.39,69.03-9.4,99.56-28.13,5.43-3.33,10.6-7.08,16.1-10.77Z"/><path d="M177.92,195.22c10.67-32.25,25.33-60.56,53.9-79.56,12.97-8.63,27.9-10.44,42.65-12.57,40.44-5.84,78.65,2.93,115.7,18.6,.65,.28,1.2,.8,1.61,2.13-1.72,0-3.46,.22-5.14-.03-23.4-3.46-45.62,1.51-67.52,9.16-28.19,9.84-54.28,24.19-81.09,37.05-18.38,8.82-37.45,16.21-56.22,24.21-.89,.38-1.88,.5-3.88,1.01Zm6.03-7.23l1.28,1.1c2.6-.91,5.29-1.61,7.77-2.77,19.74-9.24,39.56-18.31,59.12-27.93,36.96-18.19,73.66-36.99,116.38-40.18-1.08-.55-1.63-.9-2.22-1.11-30.65-11.21-62.15-13.99-94.39-9.63-17.89,2.42-34.88,6.78-48.69,19.6-10.11,9.39-18.86,19.79-25.34,31.91-5.05,9.45-9.3,19.32-13.9,29Z"/><path d="M232.77,486.87c-.77-.12-1.59-.11-2.29-.39-37.61-15.22-68.91-38.54-92.6-71.76-6.73-9.44-8.45-20.51-10.61-31.36-2.31-11.62-3.07-23.43,.15-35.1,3.88-14.09,13.59-21.48,28.04-24.03,9.56,61.92,28.72,119.19,77.31,162.63Zm-80.62-157.74c-11.6,2.98-18.36,10.11-21.03,20.98-2.8,11.36-2.06,22.87,.5,34.12,1.94,8.53,3.3,17.92,7.89,24.99,17.91,27.6,42.18,48.59,71.45,63.71,.88,.46,1.91,.62,3.89,1.24-37.59-41.82-54.18-91.61-62.7-145.04Z"/><path d="M153.21,267.32v43.52c-27.63,4.42-39.45,23.37-41.51,50.65l-1.83-.63c-2.26-11.64-5.43-23.19-6.55-34.93-1.33-13.99-1.01-28.15-1.09-42.24,0-1.55,1.76-4.13,3.16-4.5,15.52-4.07,31.14-7.79,47.82-11.87Zm-42.7,76.51c6.02-20.7,19.48-32.17,38.62-36.27v-35.23c-13.95,3.4-27.01,6.49-39.99,9.9-1.32,.35-2.94,2.6-3.04,4.07-1.39,18.97-.15,37.78,4.41,57.53Z"/><path d="M104.71,264.45c3.86-22.48,11.71-43.22,23.12-63.43,9.06,8.74,20.14,10.27,31.46,10.21-1.82,14.02-3.54,27.65-5.48,41.26-.14,.95-1.85,2.16-3.01,2.41-15.08,3.22-30.19,6.29-46.09,9.55Zm5.09-5.18c13.95-2.98,27.04-5.78,39.85-8.51,1.71-12.06,3.36-23.68,4.87-34.35-8.82-2.58-17.3-5.06-26.3-7.69-8.13,15.2-14.62,31.97-18.42,50.55Z"/><path d="M194.25,132.75c-.92,1.45-1.77,2.95-2.78,4.34-12.36,17-20.84,35.86-26.57,55.98-1.07,3.74-2.85,5.35-6.64,4.76-4.9-.75-10.01-.86-14.67-2.35-6.5-2.08-7.68-7.38-3.69-12.9,14.19-19.66,32.14-35.41,51.64-49.53,.59-.43,1.32-.65,1.99-.97l.72,.67Zm-16.83,16.37c-12.93,10.22-24.55,22.66-34.7,36.51-2,2.73-1.06,5.07,1.82,5.86,4.12,1.13,8.42,1.79,12.68,2.04,1.29,.07,3.4-1.61,3.94-2.97,5.59-13.84,10.93-27.77,16.25-41.44Z"/></svg>