<?xml version="1.0" encoding="UTF-8"?><svg xmlns="http://www.w3.org/2000/svg" viewBox="0 0 280.5 306.5"><defs><style>.h{fill:#fff;}.i{fill:#c21e33;}.j{fill:#1e438b;}.k{fill:#ffd22e;}</style></defs><g id="a"><g id="b"><polygon class="k" points="57.06 52.57 57.01 58.79 62.12 62.36 56.19 64.24 54.37 70.2 50.75 65.14 44.52 65.26 48.21 60.24 46.18 54.36 52.09 56.32 57.06 52.57"/><polygon class="k" points="232.65 53.29 230.62 59.18 234.31 64.19 228.08 64.07 224.46 69.14 222.65 63.18 216.71 61.29 221.82 57.73 221.77 51.5 226.74 55.26 232.65 53.29"/><polygon class="k" points="144.1 259.04 143.18 265.2 147.73 269.45 141.59 270.48 138.95 276.12 136.08 270.6 129.9 269.83 134.26 265.39 133.08 259.28 138.65 262.06 144.1 259.04"/></g><g id="c"><circle class="k" cx="138.81" cy="145.55" r="53.52"/><polygon class="k" points="110.5 104.26 85.3 66.24 78.27 66.66 107.65 105.3 104.82 107.39 69.49 67.18 60.1 67.73 59.71 76.82 100.35 112.45 98.11 114.84 59.34 85.47 59.06 92.03 96.77 118.27 110.5 104.26"/><polygon class="k" points="149.64 95.91 157.81 51.03 152.45 46.46 146.87 94.69 143.38 94.23 145.76 40.75 138.61 34.65 132.03 40.94 136.65 94.78 133.38 94.96 125.77 46.92 121.02 51.45 130.04 96.5 149.64 95.91"/><polygon class="k" points="181.87 119.04 219.36 93.05 218.79 86.03 180.77 116.22 178.63 113.43 218.09 77.26 217.34 67.89 208.25 67.69 173.47 109.06 171.04 106.88 199.59 67.5 193.03 67.35 167.58 105.61 181.87 119.04"/><polygon class="k" points="188.68 156 233.34 165.22 238.04 159.97 189.96 153.26 190.5 149.79 243.9 153.41 250.17 146.4 244.04 139.68 190.1 143.04 190.01 139.77 238.21 133.28 233.79 128.43 188.54 136.39 188.68 156"/><polygon class="k" points="167.93 187.54 192.06 226.24 199.1 226.02 170.8 186.58 173.69 184.57 207.89 225.74 217.29 225.45 217.93 216.38 178.3 179.63 180.6 177.31 218.54 207.74 219.01 201.19 182.04 173.92 167.93 187.54"/><polygon class="k" points="130.48 195.41 120.43 239.9 125.59 244.69 133.2 196.74 136.66 197.35 132.03 250.68 138.92 257.07 145.76 251.07 143.42 197.08 146.69 197.04 152.27 245.36 157.2 241.03 150.09 195.64 130.48 195.41"/><polygon class="k" points="97.91 175.21 59.12 199.21 59.32 206.25 98.85 178.08 100.85 180.98 59.56 215.04 59.82 224.44 68.9 225.11 105.78 185.61 108.09 187.92 77.53 225.76 84.08 226.24 111.48 189.36 97.91 175.21"/><polygon class="k" points="88.61 135.26 43.73 127.16 39.16 132.52 87.39 138.03 86.94 141.52 33.46 139.22 27.37 146.39 33.67 152.95 87.51 148.25 87.68 151.52 39.65 159.21 44.2 163.95 89.23 154.86 88.61 135.26"/></g></g><g id="d"><circle class="h" cx="138.57" cy="145.84" r="49.34"/><path class="i" d="M115.31,189.47c-14.52-7.83-26.42-24.16-26.39-43.69,.04-24.04,18.14-41.86,35.49-47.37,6.76-2.15,0,0,0,0l10.15,55.71-19.25,35.34"/><path class="j" d="M114.08,188.5c14.23,8.35,34.35,10.06,51.04-.09,20.54-12.5,26.38-37.21,22.1-54.91-1.67-6.9,0,0,0,0l-52.9,20.21-20.24,34.79"/></g><g id="e"><polygon class="k" points="182.79 174.48 96.04 174.48 96.04 171.71 183.97 168.91 182.79 174.48"/><polygon class="k" points="177.41 180.55 99.9 177.75 96.77 175.21 179.36 175.96 177.41 180.55"/><polygon class="k" points="110.64 120.36 113.08 120.36 113.08 190.12 108.1 186.24 110.64 120.36"/><polygon class="k" points="115.7 120.36 118.36 120.36 121.02 192.24 115.7 192.24 115.7 120.36"/><rect class="k" x="110.5" y="123.99" width="7.87" height="5.31"/><rect class="k" x="110.59" y="131.41" width="7.77" height="2.46"/><rect class="k" x="110.59" y="137.05" width="8.09" height="2.52"/><rect class="k" x="110.59" y="143.09" width="8.09" height="2.46"/><rect class="k" x="110.59" y="151.42" width="8.09" height="2.85"/><rect class="k" x="110.5" y="160.03" width="8.19" height="2.9"/><rect class="k" x="106.76" y="145.01" width="1.68" height="28.18" transform="translate(44.77 -22.4) rotate(14.98)"/><rect class="k" x="121.08" y="149.77" width="1.29" height="22.08" transform="translate(-41.61 42.5) rotate(-16.96)"/><rect class="k" x="174.36" y="165.22" width="1.62" height="5.6"/><rect class="k" x="167.02" y="161.23" width="1.97" height="10.5" transform="translate(-21.04 24.35) rotate(-7.8)"/><rect class="k" x="160.02" y="157.88" width="1.9" height="13.75" transform="translate(-25.21 29.13) rotate(-9.59)"/><rect class="k" x="152.74" y="152.8" width="1.68" height="19.06" transform="translate(-36.58 44.96) rotate(-14.9)"/><rect class="k" x="146.08" y="148.82" width="1.29" height="23.98" transform="translate(-32.11 36.69) rotate(-12.86)"/><polygon class="k" points="143.97 172.4 142.94 172.68 135.07 143.09 136.28 143.49 143.97 172.4"/><rect class="k" x="131.86" y="137.05" width="1.3" height="35.93" transform="translate(-31.18 33.38) rotate(-12.86)"/><rect class="k" x="124.03" y="129.11" width="1.75" height="43.42" transform="translate(-33.44 35.61) rotate(-14.33)"/><path class="k" d="M96.77,173.2l1.9,.69s4.52-15.34,6.46-23.59c1.39-5.92,5.92-20.15,5.92-20.15l-2.94,.75s-3.23,13.51-4.81,20.23c-1.75,7.46-6.52,22.06-6.52,22.06Z"/><path class="k" d="M91.96,166.6l1.75,1.16c.83-3.53,2.41-6.95,3.24-10.48,.98-4.18,2.66-12.63,2.66-12.63l-1.73-.41s-1.59,8.48-2.57,12.63c-.83,3.55-3.35,9.73-3.35,9.73Z"/><path class="k" d="M89.5,156.88s7.44-7.78,12.39-14.29c4.37-5.75,10.08-14.93,10.08-14.93l-.71-2.12s-6.1,9.75-10.94,15.63-11.15,12.08-11.15,12.08l.32,3.63Z"/><path class="k" d="M183.22,170.37s-25.63-10.51-38.82-19.55c-9.89-6.77-27.54-21.74-27.54-21.74l.89-3.24s13.75,14.88,28.97,23.89c16.12,9.54,38.11,17.25,38.11,17.25l-1.61,3.39Z"/></g><g id="f"><path class="k" d="M138.85,95.45c-27.95,0-50.61,22.66-50.61,50.61s22.66,50.61,50.61,50.61,50.61-22.66,50.61-50.61-22.66-50.61-50.61-50.61Zm-.19,99.23c-26.96,0-48.82-21.86-48.82-48.82s21.86-48.82,48.82-48.82,48.82,21.86,48.82,48.82-21.86,48.82-48.82,48.82Z"/></g><g id="g"><polygon class="k" points="139.28 108.86 139.28 109.77 140.03 110.3 139.15 110.57 138.89 111.45 138.35 110.71 137.44 110.72 137.98 109.99 137.68 109.12 138.55 109.41 139.28 108.86"/><polygon class="k" points="165.13 108.96 164.83 109.83 165.38 110.57 164.46 110.55 163.93 111.29 163.66 110.42 162.79 110.14 163.54 109.62 163.53 108.7 164.26 109.25 165.13 108.96"/><polygon class="k" points="152.1 139.25 151.96 140.16 152.63 140.79 151.73 140.94 151.34 141.77 150.92 140.95 150.01 140.84 150.65 140.19 150.48 139.29 151.3 139.7 152.1 139.25"/><circle class="k" cx="151.32" cy="122.54" r="7.88"/><polygon class="k" points="147.15 116.47 143.44 110.87 142.41 110.93 146.73 116.62 146.31 116.93 141.11 111.01 139.73 111.09 139.67 112.43 145.66 117.67 145.33 118.02 139.62 113.7 139.58 114.67 145.13 118.53 147.15 116.47"/><polygon class="k" points="152.91 115.24 154.12 108.63 153.33 107.96 152.51 115.06 151.99 114.99 152.34 107.12 151.29 106.22 150.32 107.14 151 115.07 150.52 115.1 149.4 108.02 148.7 108.69 150.03 115.32 152.91 115.24"/><polygon class="k" points="157.66 118.64 163.18 114.82 163.09 113.78 157.5 118.23 157.18 117.82 162.99 112.49 162.88 111.11 161.54 111.08 156.42 117.17 156.06 116.85 160.27 111.05 159.3 111.03 155.55 116.66 157.66 118.64"/><polygon class="k" points="158.66 124.08 165.24 125.44 165.93 124.67 158.85 123.68 158.93 123.17 166.79 123.7 167.71 122.67 166.81 121.68 158.87 122.17 158.86 121.69 165.95 120.74 165.3 120.02 158.64 121.2 158.66 124.08"/><polygon class="k" points="155.61 128.73 159.16 134.42 160.19 134.39 156.03 128.58 156.45 128.29 161.49 134.35 162.87 134.31 162.97 132.97 157.13 127.56 157.47 127.22 163.06 131.7 163.13 130.74 157.68 126.72 155.61 128.73"/><polygon class="k" points="150.09 129.88 148.61 136.43 149.37 137.14 150.49 130.08 151 130.17 150.32 138.02 151.34 138.96 152.34 138.08 152 130.13 152.48 130.13 153.3 137.24 154.03 136.6 152.98 129.92 150.09 129.88"/><polygon class="k" points="145.3 126.91 139.59 130.44 139.62 131.48 145.44 127.33 145.73 127.76 139.65 132.77 139.69 134.16 141.03 134.26 146.46 128.44 146.8 128.78 142.3 134.35 143.26 134.42 147.29 128.99 145.3 126.91"/><polygon class="k" points="143.93 121.03 137.32 119.84 136.65 120.63 143.75 121.44 143.68 121.95 135.81 121.61 134.91 122.67 135.84 123.63 143.77 122.94 143.79 123.42 136.72 124.55 137.39 125.25 144.02 123.91 143.93 121.03"/></g></svg>