<?xml version="1.0" encoding="utf-8"?>
<!-- Generator: Adobe Illustrator 26.2.1, SVG Export Plug-In . SVG Version: 6.00 Build 0)  -->
<svg version="1.1" id="Layer_3" xmlns="http://www.w3.org/2000/svg" xmlns:xlink="http://www.w3.org/1999/xlink" x="0px" y="0px"
	 viewBox="0 0 515.18 488.35" style="enable-background:new 0 0 515.18 488.35;" xml:space="preserve">
<style type="text/css">
	.st0{display:none;fill:#1C1C1C;}
	.st1{fill:#DBDBDB;}
	.st2{fill:#DADADA;}
	.st3{fill:#FCC733;}
	.st4{fill:#FBC633;}
	.st5{fill:#FBC932;}
	.st6{fill:#D8D8D8;}
	.st7{fill:#F8C632;}
	.st8{fill:#FAC832;}
	.st9{fill:#F7C632;}
	.st10{fill:#FCC932;}
	.st11{fill:#D9D9D9;}
	.st12{display:none;fill:#1D1D1C;}
	.st13{display:none;fill:#21201C;}
</style>
<g>
	<path class="st0" d="M499.33,467.4c-163.87,0-327.71,0-491.52,0c0-153.12,0-306.21,0-459.26c163.87,0,327.71,0,491.52,0
		C499.33,161.26,499.33,314.35,499.33,467.4z M262.78,123.93c10.02,0.1,20.03,0.2,30.05,0.3c-0.94,3.71-1.87,7.42-2.83,11.12
		c-6.57,25.18-11.73,50.53-11.36,76.77c0.16,11.64-0.61,23.28-0.97,34.93c-1.19,38.64-2.4,77.27-3.58,115.91
		c-0.02,0.7,0.14,1.41,0.21,2.14c9.86,0,19.43,0,29.04,0c0.33-1.1,0.66-2.07,0.91-3.06c14.85-60.4,29.67-120.81,44.63-181.19
		c0.42-1.7,1.89-3.62,3.41-4.49c21.21-12.07,42.48-24.03,63.81-35.9c21.32-11.87,38.71-27.61,49.12-50.07
		c7.96-17.16,9.29-35.03,4.64-53.64c-1.44,0.63-2.61,1.1-3.74,1.66c-16.53,8.07-33.05,16.14-49.57,24.22
		c-25.69,12.57-51.4,25.09-77.05,37.72c-15.34,7.56-30.6,15.3-45.89,22.96c1.38-12.31,2.82-24.62,4.12-36.94
		c0.65-6.09,1.81-12.25,1.41-18.29c-0.79-11.75-7.6-20.6-15.74-28.52c-0.55-0.54-1.28-0.9-2.49-1.72c-1,29.15-4.32,57.4-10.45,85.5
		c-2.61,0-5.15,0-7.69,0c1.92-15.72,3.82-31.44,5.76-47.16c1.64-13.31,3.26-26.63,5.03-39.92c0.37-2.74-0.38-4.13-3-5.16
		c-4.74-1.87-9.41-3.98-13.94-6.31c-2.33-1.19-4.16-1.02-6.38,0.13c-4.41,2.29-8.89,4.5-13.48,6.4c-2.74,1.14-3.38,2.59-2.95,5.51
		c2.13,14.53,4.01,29.1,5.97,43.65c1.95,14.5,3.9,29.01,5.83,43.43C251.32,123.93,257.05,123.93,262.78,123.93z M215.13,123.49
		c-1.62-0.74-3.27-1.42-4.86-2.22c-19.4-9.69-38.66-19.66-58.2-29.05c-37.62-18.1-75.4-35.87-113.11-53.78
		c-1.24-0.59-2.52-1.11-3.92-1.73c-4.69,18.61-3.38,36.36,4.7,53.43c10.72,22.66,28.55,38.28,50.16,50.07
		c21.97,11.99,43.94,24,65.96,35.89c2.23,1.2,3.35,2.66,3.96,5.08c13.04,52.15,26.14,104.28,39.25,156.4
		c2.32,9.23,4.78,18.43,7.11,27.4c9.63,0,18.78,0,28.13,0c0-1.02,0.01-1.77,0-2.53c-1.22-53.98-2.22-107.97-3.75-161.95
		c-0.74-26.07-5.53-51.54-14.16-76.22c6.97,0,13.93,0,20.3,0c-3.35-29.08-6.63-57.53-9.93-86.14c-7,6.1-13.24,12.9-16.2,21.87
		c-1.4,4.26-2.31,9.07-1.87,13.48c1.12,11.31,3.19,22.53,4.74,33.8C214.16,112.69,214.57,118.1,215.13,123.49z M336.44,262.76
		c19.87-8.12,39.33-15.82,58.56-24.06c7.93-3.4,15.97-7.11,22.9-12.14c23.97-17.4,38.71-41.67,49.09-68.9
		c0.15-0.4,0.02-0.91,0.02-1.63c-1.51,0.58-2.69,1.03-3.87,1.5c-33.49,13.13-66.81,26.72-100.58,39.08
		c-8.61,3.15-12.68,7.07-14.38,16.01C345,229.38,340.47,245.89,336.44,262.76z M171.37,262.45c0.1-0.62,0.21-0.87,0.16-1.09
		c-4.85-19.59-9.68-39.17-14.62-58.74c-0.23-0.9-1.21-1.95-2.08-2.28c-29.08-11.15-58.2-22.19-87.29-33.32
		c-6.98-2.67-13.87-5.56-21.41-8.6c0.36,1.12,0.48,1.57,0.65,1.99c14.77,37.07,35.6,68.34,75.79,82.24
		C139.06,248.37,154.98,255.74,171.37,262.45z M215.72,445.93c0-17.67,0-34.85,0-51.93c-3.58,0-6.83,0-10.43,0
		c0,10.58,0,20.86,0,31.14c-1.31-0.83-1.97-1.84-2.6-2.88c-5.25-8.63-10.47-17.28-15.76-25.88c-0.62-1.01-1.58-2.43-2.51-2.54
		c-2.97-0.33-6-0.12-8.97-0.12c0,17.72,0,34.81,0,51.99c3.5,0,6.76,0,10.52,0c0-10.42,0-20.63,0-30.84
		c6.24,8.92,11.89,17.88,17.26,27c1.74,2.95,3.6,4.7,7.21,4.1C212.05,445.71,213.74,445.93,215.72,445.93z M394.07,414.88
		c0.24-0.04,0.48-0.09,0.72-0.13c5.89,9.56,11.75,19.15,17.73,28.66c0.66,1.05,1.89,2.27,2.98,2.41c2.73,0.35,5.54,0.11,8.44,0.11
		c0-17.59,0-34.76,0-52.01c-3.52,0-6.77,0-10.49,0c0,10.57,0,20.93,0,31.29c-1.05-0.49-1.44-1.09-1.81-1.7
		c-5.51-9.05-11-18.11-16.56-27.13c-0.62-1.01-1.57-2.43-2.49-2.53c-2.97-0.32-6-0.12-9.02-0.12c0,17.68,0,34.76,0,51.92
		c3.54,0,6.89,0,10.51,0C394.07,435.18,394.07,425.03,394.07,414.88z M462.54,393.82c0,10.72,0,21.06,0,31.41
		c-6.55-9.58-12.42-19.27-18.35-28.92c-0.62-1-1.6-2.38-2.53-2.48c-2.96-0.32-5.99-0.12-8.92-0.12c0,17.74,0,34.83,0,51.9
		c3.57,0,6.92,0,10.55,0c0-10.47,0-20.61,0-31.76c1.4,2.18,2.29,3.51,3.12,4.87c5.09,8.26,10.13,16.55,15.3,24.76
		c0.65,1.04,1.91,2.21,3.01,2.35c2.73,0.34,5.52,0.11,8.34,0.11c0-17.64,0-34.82,0-52.11C469.61,393.82,466.44,393.82,462.54,393.82
		z M95.87,424.54c2.91,6.31,5.72,12.59,8.72,18.79c0.51,1.06,1.73,2.37,2.75,2.48c2.97,0.33,6.01,0.12,9.6,0.12
		c-3.73-7.76-7.17-14.92-10.65-22.17c0.98-0.51,1.54-0.79,2.09-1.09c6.08-3.29,8.59-8.61,7.61-16.12
		c-0.81-6.2-5.07-11.69-11.45-12.24c-8.81-0.76-17.74-0.19-26.57-0.19c0,17.28,0,34.45,0,51.54c3.55,0,6.81,0,10.51,0
		c0-7.22,0-14.17,0-21.12C91.21,424.54,93.5,424.54,95.87,424.54z M308.9,419.83c0.03,0,0.06,0,0.08,0c0-2.81,0.04-5.63-0.01-8.44
		c-0.18-9.81-6.12-16.66-15.76-18.24c-12.66-2.07-22.79,4.75-23.73,16.65c-0.57,7.22-0.48,14.61,0.32,21.8
		c1.11,9.94,9.84,15.71,21.45,15.09c9.74-0.52,17.06-7.48,17.61-16.9C309.07,426.49,308.9,423.15,308.9,419.83z M168.5,445.93
		c-0.49-1.71-0.83-3.05-1.25-4.36c-4.09-12.76-8.19-25.52-12.3-38.28c-3.13-9.7-3.13-9.63-13.26-9.65c-2.41-0.01-3.52,0.6-4.29,3.07
		c-4.64,14.87-9.51,29.66-14.29,44.48c-0.46,1.43-0.77,2.9-1.24,4.74c1.8,0,3.19,0,4.58,0c6.46,0,6.59,0.04,8.43-6.06
		c0.63-2.07,1.66-2.48,3.55-2.42c3.58,0.12,7.2,0.34,10.74-0.05c4.16-0.45,6.36,0.87,7.04,5.13c0.2,1.24,1.65,3.07,2.73,3.24
		C161.92,446.22,165.02,445.93,168.5,445.93z M264.03,411.2c-1.36-3.92-1.99-7.36-3.64-10.22c-3.82-6.61-13.21-9.62-22.12-7.6
		c-8.29,1.88-13.52,7.18-14.05,15.53c-0.47,7.5-0.31,15.08,0.13,22.59c0.36,6.24,3.97,10.8,9.65,13.26
		c7.34,3.17,14.72,2.93,21.67-1.29c5.2-3.16,8.03-9.47,6.95-15.04c-3.25,0-6.51,0-9.91,0c-0.17,0.74-0.33,1.35-0.46,1.96
		c-1.04,5.08-4.23,7.42-9.67,7.09c-4.6-0.28-7.63-3.37-7.74-8.32c-0.14-6.26-0.16-12.53,0.01-18.8c0.14-5.07,3.32-8.06,8.24-8.19
		c5.54-0.15,7.58,1.72,9.8,9.04C256.15,411.2,259.43,411.2,264.03,411.2z M35.71,393.8c0,17.56,0,34.74,0,51.86
		c3.55,0,6.8,0,10.52,0c0-7.46,0-14.67,0-22.12c5.92,0,11.38,0,17.01,0c0-3.13,0-5.98,0-9.24c-5.89,0-11.45,0-16.97,0
		c0-3.96,0-7.49,0-11.47c8.53,0,16.89,0,25.31,0c0-3.29,0-6.12,0-9.02C59.48,393.8,47.74,393.8,35.71,393.8z M321.42,393.87
		c0,17.48,0,34.66,0,51.82c3.53,0,6.79,0,10.47,0c0-7.43,0-14.64,0-22.06c5.9,0,11.37,0,17,0c0-3.16,0-6.09,0-9.3
		c-5.87,0-11.33,0-16.85,0c0-3.92,0-7.54,0-11.59c8.56,0,16.91,0,25.41,0c0-3.19,0-5.94,0-8.88
		C345.38,393.87,333.54,393.87,321.42,393.87z M363.61,393.89c0,17.55,0,34.63,0,51.73c3.56,0,6.91,0,10.23,0
		c0-17.4,0-34.48,0-51.73C370.36,393.89,367.1,393.89,363.61,393.89z"/>
	<path class="st1" d="M216.38,124.31c8.63,24.68,13.42,50.15,14.16,76.22c1.53,53.97,2.53,107.96,3.75,161.95
		c0.02,0.75,0,1.51,0,2.53c-9.34,0-18.49,0-28.13,0c-2.33-8.98-4.79-18.17-7.11-27.4c-13.12-52.13-26.21-104.26-39.25-156.4
		c-0.6-2.42-1.73-3.88-3.96-5.08c-22.03-11.89-43.99-23.9-65.96-35.89c-21.61-11.79-39.44-27.42-50.16-50.07
		c-8.07-17.07-9.39-34.82-4.7-53.43c1.41,0.62,2.68,1.14,3.92,1.73c37.71,17.9,75.49,35.68,113.11,53.78
		c19.54,9.4,38.81,19.36,58.2,29.05c1.59,0.8,3.24,1.48,4.87,2.22C215.55,123.76,215.97,124.04,216.38,124.31z"/>
	<path class="st2" d="M293.61,123.32c15.29-7.66,30.55-15.4,45.89-22.96c25.65-12.64,51.36-25.16,77.05-37.72
		c16.52-8.08,33.04-16.16,49.57-24.22c1.13-0.55,2.3-1.02,3.74-1.66c4.64,18.62,3.32,36.48-4.64,53.64
		c-10.42,22.46-27.8,38.2-49.12,50.07c-21.32,11.87-42.6,23.83-63.81,35.9c-1.52,0.87-2.99,2.79-3.41,4.49
		c-14.95,60.38-29.78,120.79-44.63,181.19c-0.24,0.99-0.58,1.96-0.91,3.06c-9.61,0-19.18,0-29.04,0c-0.08-0.73-0.23-1.44-0.21-2.14
		c1.18-38.64,2.38-77.27,3.58-115.91c0.36-11.64,1.14-23.29,0.97-34.93c-0.37-26.24,4.8-51.6,11.36-76.77
		c0.97-3.7,1.89-7.41,2.83-11.12C293.09,123.92,293.35,123.62,293.61,123.32z"/>
	<path class="st2" d="M336.44,262.76c4.03-16.87,8.56-33.38,11.74-50.14c1.7-8.94,5.77-12.86,14.38-16.01
		c33.77-12.37,67.09-25.95,100.58-39.08c1.18-0.46,2.37-0.92,3.87-1.5c0,0.72,0.13,1.23-0.02,1.63
		c-10.39,27.23-25.12,51.5-49.09,68.9c-6.93,5.03-14.97,8.74-22.9,12.14C375.77,246.94,356.31,254.64,336.44,262.76z"/>
	<path class="st2" d="M171.37,262.45c-16.39-6.7-32.31-14.08-48.8-19.78c-40.19-13.91-61.02-45.17-75.79-82.24
		c-0.17-0.43-0.29-0.88-0.65-1.99c7.54,3.03,14.43,5.93,21.41,8.6c29.09,11.12,58.21,22.17,87.29,33.32
		c0.88,0.34,1.86,1.39,2.08,2.28c4.94,19.56,9.78,39.15,14.62,58.74C171.58,261.57,171.47,261.83,171.37,262.45z"/>
	<path class="st3" d="M262.78,123.93c-5.73,0-11.46,0-17.17,0c-1.94-14.42-3.88-28.93-5.83-43.43c-1.96-14.56-3.83-29.12-5.97-43.65
		c-0.43-2.92,0.21-4.37,2.95-5.51c4.59-1.9,9.07-4.11,13.48-6.4c2.22-1.15,4.05-1.33,6.38-0.13c4.54,2.33,9.2,4.44,13.94,6.31
		c2.62,1.03,3.36,2.42,3,5.16c-1.77,13.29-3.39,26.61-5.03,39.92c-1.94,15.72-3.84,31.44-5.76,47.16
		C262.77,123.54,262.78,123.73,262.78,123.93z"/>
	<path class="st4" d="M216.38,124.31c-0.42-0.27-0.83-0.55-1.25-0.82c-0.56-5.39-0.97-10.8-1.71-16.17
		c-1.55-11.27-3.62-22.49-4.74-33.8c-0.44-4.41,0.47-9.22,1.87-13.48c2.96-8.97,9.2-15.77,16.2-21.87
		c3.3,28.61,6.58,57.06,9.93,86.14C230.32,124.31,223.35,124.31,216.38,124.31z"/>
	<path class="st4" d="M262.78,123.93c0-0.19-0.01-0.38-0.01-0.58c2.54,0,5.08,0,7.69,0c6.13-28.1,9.45-56.34,10.45-85.5
		c1.2,0.82,1.93,1.18,2.49,1.72c8.14,7.92,14.95,16.77,15.74,28.52c0.4,6.04-0.76,12.2-1.41,18.29
		c-1.31,12.32-2.74,24.63-4.12,36.94c-0.26,0.3-0.52,0.61-0.78,0.91C282.81,124.13,272.8,124.03,262.78,123.93z"/>
	<path class="st5" d="M215.72,445.93c-1.98,0-3.66-0.22-5.27,0.04c-3.61,0.59-5.47-1.15-7.21-4.1c-5.37-9.12-11.03-18.08-17.26-27
		c0,10.21,0,20.42,0,30.84c-3.76,0-7.02,0-10.52,0c0-17.18,0-34.27,0-51.99c2.97,0,6-0.2,8.97,0.12c0.93,0.1,1.88,1.52,2.51,2.54
		c5.29,8.6,10.51,17.25,15.76,25.88c0.63,1.04,1.29,2.05,2.6,2.88c0-10.28,0-20.56,0-31.14c3.6,0,6.85,0,10.43,0
		C215.72,411.09,215.72,428.27,215.72,445.93z"/>
	<path class="st6" d="M394.07,414.88c0,10.15,0,20.31,0,30.76c-3.62,0-6.97,0-10.51,0c0-17.15,0-34.24,0-51.92
		c3.02,0,6.05-0.2,9.02,0.12c0.92,0.1,1.87,1.52,2.49,2.53c5.56,9.02,11.05,18.08,16.56,27.13c0.37,0.61,0.76,1.22,1.81,1.7
		c0-10.36,0-20.71,0-31.29c3.72,0,6.97,0,10.49,0c0,17.25,0,34.42,0,52.01c-2.91,0-5.71,0.23-8.44-0.11
		c-1.09-0.14-2.32-1.36-2.98-2.41c-5.97-9.51-11.83-19.1-17.73-28.66C394.55,414.79,394.31,414.83,394.07,414.88z"/>
	<path class="st6" d="M462.54,393.82c3.9,0,7.06,0,10.52,0c0,17.3,0,34.47,0,52.11c-2.82,0-5.61,0.23-8.34-0.11
		c-1.1-0.14-2.36-1.31-3.01-2.35c-5.17-8.21-10.21-16.5-15.3-24.76c-0.84-1.36-1.72-2.68-3.12-4.87c0,11.15,0,21.29,0,31.76
		c-3.63,0-6.98,0-10.55,0c0-17.07,0-34.15,0-51.9c2.93,0,5.95-0.2,8.92,0.12c0.93,0.1,1.91,1.48,2.53,2.48
		c5.94,9.65,11.8,19.34,18.35,28.92C462.54,414.88,462.54,404.53,462.54,393.82z"/>
	<path class="st5" d="M95.87,424.54c-2.37,0-4.65,0-7.4,0c0,6.96,0,13.91,0,21.12c-3.7,0-6.96,0-10.51,0c0-17.09,0-34.26,0-51.54
		c8.84,0,17.76-0.57,26.57,0.19c6.39,0.55,10.64,6.04,11.45,12.24c0.98,7.51-1.53,12.83-7.61,16.12c-0.55,0.3-1.11,0.58-2.09,1.09
		c3.48,7.25,6.92,14.41,10.65,22.17c-3.6,0-6.63,0.21-9.6-0.12c-1.01-0.11-2.23-1.42-2.75-2.48
		C101.59,437.13,98.77,430.85,95.87,424.54z M88.61,402.92c0,4.61,0,8.73,0,13.04c3.69,0,7.13,0.16,10.54-0.04
		c3.95-0.24,6.42-3.03,6.32-6.72c-0.1-3.68-2.7-6.16-6.73-6.26C95.44,402.85,92.14,402.92,88.61,402.92z"/>
	<path class="st7" d="M308.9,419.83c0,3.32,0.16,6.66-0.03,9.97c-0.54,9.42-7.87,16.38-17.61,16.9
		c-11.61,0.62-20.34-5.15-21.45-15.09c-0.8-7.2-0.89-14.58-0.32-21.8c0.93-11.91,11.07-18.72,23.73-16.65
		c9.63,1.58,15.57,8.43,15.76,18.24c0.05,2.81,0.01,5.63,0.01,8.44C308.96,419.83,308.93,419.83,308.9,419.83z M298.21,420.02
		c0-3.19,0.15-6.39-0.03-9.57c-0.29-5.01-3.75-8.21-8.68-8.3c-5.28-0.09-9,2.91-9.22,8.07c-0.27,6.37-0.27,12.76-0.01,19.13
		c0.22,5.22,3.88,8.2,9.18,8.11c4.93-0.08,8.43-3.28,8.73-8.26C298.36,426.16,298.21,423.09,298.21,420.02z"/>
	<path class="st8" d="M168.5,445.93c-3.48,0-6.58,0.29-9.57-0.15c-1.09-0.16-2.53-1.99-2.73-3.24c-0.68-4.26-2.88-5.58-7.04-5.13
		c-3.54,0.38-7.16,0.16-10.74,0.05c-1.9-0.06-2.93,0.35-3.55,2.42c-1.84,6.1-1.96,6.06-8.43,6.06c-1.39,0-2.78,0-4.58,0
		c0.48-1.83,0.79-3.31,1.24-4.74c4.77-14.82,9.65-29.62,14.29-44.48c0.77-2.47,1.89-3.08,4.29-3.07
		c10.13,0.03,10.13-0.05,13.26,9.65c4.11,12.76,8.21,25.52,12.3,38.28C167.68,442.88,168.01,444.21,168.5,445.93z M138.19,428.84
		c4.74,0,9.02,0,13.81,0c-2.31-7.33-4.52-14.35-7.01-22.26C142.55,414.56,140.44,421.49,138.19,428.84z"/>
	<path class="st9" d="M264.03,411.2c-4.6,0-7.87,0-11.13,0c-2.21-7.32-4.25-9.19-9.8-9.04c-4.92,0.13-8.1,3.12-8.24,8.19
		c-0.17,6.26-0.16,12.53-0.01,18.8c0.11,4.95,3.14,8.04,7.74,8.32c5.44,0.33,8.62-2,9.67-7.09c0.13-0.61,0.28-1.22,0.46-1.96
		c3.39,0,6.66,0,9.91,0c1.08,5.57-1.75,11.89-6.95,15.04c-6.95,4.22-14.33,4.47-21.67,1.29c-5.68-2.46-9.29-7.02-9.65-13.26
		c-0.43-7.51-0.6-15.09-0.13-22.59c0.53-8.34,5.76-13.64,14.05-15.53c8.91-2.02,18.29,0.99,22.12,7.6
		C262.04,403.84,262.67,407.28,264.03,411.2z"/>
	<path class="st10" d="M35.71,393.8c12.03,0,23.77,0,35.88,0c0,2.9,0,5.73,0,9.02c-8.42,0-16.78,0-25.31,0c0,3.98,0,7.52,0,11.47
		c5.51,0,11.08,0,16.97,0c0,3.26,0,6.11,0,9.24c-5.63,0-11.09,0-17.01,0c0,7.46,0,14.66,0,22.12c-3.72,0-6.97,0-10.52,0
		C35.71,428.54,35.71,411.36,35.71,393.8z"/>
	<path class="st11" d="M321.42,393.87c12.12,0,23.97,0,36.03,0c0,2.94,0,5.69,0,8.88c-8.5,0-16.85,0-25.41,0c0,4.05,0,7.67,0,11.59
		c5.52,0,10.98,0,16.85,0c0,3.21,0,6.14,0,9.3c-5.63,0-11.1,0-17,0c0,7.42,0,14.63,0,22.06c-3.69,0-6.95,0-10.47,0
		C321.42,428.53,321.42,411.35,321.42,393.87z"/>
	<path class="st6" d="M363.61,393.89c3.5,0,6.75,0,10.23,0c0,17.25,0,34.33,0,51.73c-3.32,0-6.67,0-10.23,0
		C363.61,428.52,363.61,411.44,363.61,393.89z"/>
	<path class="st12" d="M88.61,402.92c3.54,0,6.83-0.07,10.12,0.02c4.04,0.1,6.63,2.58,6.73,6.26c0.1,3.69-2.37,6.48-6.32,6.72
		c-3.41,0.21-6.84,0.04-10.54,0.04C88.61,411.65,88.61,407.53,88.61,402.92z"/>
	<path class="st12" d="M298.21,420.02c0,3.06,0.15,6.13-0.04,9.19c-0.3,4.98-3.79,8.18-8.73,8.26c-5.3,0.09-8.96-2.9-9.18-8.11
		c-0.26-6.37-0.26-12.76,0.01-19.13c0.22-5.16,3.94-8.16,9.22-8.07c4.94,0.09,8.4,3.29,8.68,8.3
		C298.36,413.64,298.21,416.83,298.21,420.02z"/>
	<path class="st13" d="M138.19,428.84c2.25-7.35,4.37-14.29,6.8-22.26c2.49,7.91,4.7,14.93,7.01,22.26
		C147.21,428.84,142.92,428.84,138.19,428.84z"/>
</g>
</svg>
