<?xml version="1.0" encoding="utf-8"?>
<!-- Generator: Adobe Illustrator 26.2.1, SVG Export Plug-In . SVG Version: 6.00 Build 0)  -->
<svg version="1.1" id="Layer_3" xmlns="http://www.w3.org/2000/svg" xmlns:xlink="http://www.w3.org/1999/xlink" x="0px" y="0px"
	 viewBox="0 0 700.99 165.69" style="enable-background:new 0 0 700.99 165.69;" xml:space="preserve">
<style type="text/css">
	.st0{display:none;fill:#1D1D1C;}
	.st1{fill:#DADADA;}
	.st2{fill:#FCCA33;}
	.st3{fill:#FBC932;}
	.st4{fill:#FCC933;}
	.st5{fill:#D7D7D7;}
	.st6{fill:#F9C832;}
	.st7{fill:#D9D9D9;}
	.st8{fill:#FAC532;}
	.st9{fill:#F8C332;}
	.st10{fill:#F8C432;}
	.st11{display:none;fill:#1F1E1C;}
	.st12{display:none;fill:#201F1C;}
</style>
<g>
	<path class="st0" d="M6.29,154.93c0-49.15,0-98.3,0-147.46c227.07,0,454.14,0,681.22,0c0,49.15,0,98.3,0,147.46
		C460.43,154.93,233.36,154.93,6.29,154.93z M585.39,103.41c-0.24,0.06-0.47,0.12-0.71,0.17c-6.55-10.95-13.08-21.9-19.64-32.84
		c-2.3-3.83-3.84-9.12-7.24-11.02c-3.55-1.98-8.95-0.45-13.5-0.88c-3.97-0.37-4.98,1.11-4.95,4.94c0.16,23.8,0.08,47.6,0.08,71.41
		c0,0.77-0.25,1.68,0.08,2.27c0.46,0.83,1.35,1.98,2.08,2.01c5.59,0.17,11.19,0.09,17.26,0.09c0-14.85,0-29.27,0-43.69
		c7.17,10.42,13.62,20.97,20.1,31.5c2.48,4.02,4.18,9.59,7.8,11.54c3.8,2.04,9.47,0.59,14.33,0.66c0.26,0,0.52-0.03,0.77,0
		c2.16,0.28,2.91-0.67,2.91-2.83c-0.05-24.95-0.06-49.91,0.01-74.86c0.01-2.41-0.89-3.09-3.17-3c-3.7,0.15-7.42,0.04-11.13,0.04
		c-5.06,0-5.06,0-5.06,5.01C585.39,77.1,585.39,90.26,585.39,103.41z M630.92,94.84c1.29,1.88,2.01,2.84,2.64,3.85
		c5.88,9.58,11.73,19.19,17.63,28.77c2.47,4.01,4.21,9.55,7.84,11.48c3.81,2.03,9.48,0.57,14.33,0.63c0.26,0,0.52-0.03,0.77,0
		c2.28,0.3,2.81-0.87,2.81-2.93c-0.04-24.95-0.04-49.91,0-74.86c0-2.12-0.66-2.97-2.87-2.9c-4.09,0.14-8.21,0.27-12.28-0.03
		c-3.54-0.26-4.31,1.18-4.26,4.42c0.16,12.54,0.1,25.08,0.1,37.62c0,0.89-0.19,1.78-0.36,3.32c-7.03-11.73-13.65-22.81-20.29-33.87
		c-2.24-3.72-3.74-8.85-7.05-10.68c-3.46-1.91-8.69-0.68-13.15-0.73c-5.14-0.06-5.15-0.01-5.15,5.34c0,23.55,0,47.09,0,70.64
		c0,0.9-0.22,1.89,0.09,2.66c0.31,0.77,1.15,1.87,1.78,1.89c5.7,0.15,11.41,0.09,17.43,0.09
		C630.92,124.67,630.92,110.3,630.92,94.84z M272.09,103.4c-0.22,0.06-0.43,0.12-0.65,0.18c-0.65-1.02-1.32-2.03-1.94-3.07
		c-5.91-9.87-11.78-19.77-17.72-29.63c-2.37-3.93-4.03-9.26-7.54-11.25c-3.52-1.99-8.96-0.39-13.53-0.78
		c-3.87-0.33-4.73,1.24-4.7,4.81c0.15,17.02,0.07,34.05,0.07,51.07c0,7.17-0.09,14.34,0.09,21.5c0.03,1.14,1.23,3.18,1.97,3.21
		c5.59,0.27,11.21,0.15,17.3,0.15c0-14.84,0-29.28,0-43.73c7.21,10.4,13.66,20.96,20.15,31.49c2.48,4.02,4.19,9.57,7.82,11.53
		c3.8,2.05,9.47,0.63,14.32,0.72c0.26,0,0.51-0.02,0.77,0c2.17,0.23,2.9-0.78,2.89-2.9c-0.04-24.96-0.05-49.92,0.01-74.88
		c0.01-2.48-1.03-3.02-3.24-2.95c-4.09,0.13-8.2,0.24-12.28-0.03c-3.22-0.21-3.94,1.15-3.89,4.02c0.14,7.68,0.08,15.36,0.09,23.04
		C272.1,91.75,272.09,97.58,272.09,103.4z M128.41,105.99c0.52-0.4,0.78-0.68,1.11-0.84c11.14-5.53,15.88-15.56,13.07-27.63
		c-2.65-11.35-11.62-18.48-23.62-18.57c-11.26-0.09-22.52,0.02-33.78-0.06c-2.28-0.02-3.54,0.37-3.53,3.1
		c0.08,24.82,0.07,49.64,0,74.46c-0.01,2.63,1.09,3.29,3.47,3.2c3.58-0.13,7.16-0.03,10.75-0.03c5.35,0,5.35,0,5.36-5.49
		c0-0.9,0-1.79,0-2.69c0-7.9,0-15.79,0-23.61c8.07-1.31,8.07-1.31,11.01,5.33c3.47,7.82,6.88,15.67,10.47,23.44
		c0.55,1.2,1.9,2.81,2.94,2.86c5.96,0.27,11.93,0.13,18.81,0.13C138.88,127.93,133.64,116.96,128.41,105.99z M367.04,99.21
		c0.04,0,0.08,0,0.11,0c0,4.86-0.27,9.73,0.05,14.57c0.82,12.34,8.32,21.85,20.29,24.96c4.97,1.29,10.39,1.71,15.52,1.37
		c16.11-1.1,26.99-13.03,27.13-29.14c0.07-8.06,0.09-16.11-0.01-24.17c-0.18-14.01-9.2-25.09-22.92-27.73
		c-4.21-0.81-8.66-1.01-12.95-0.74c-15.44,0.97-26.34,12.07-27.19,27.47C366.83,90.25,367.04,94.74,367.04,99.21z M147.11,139.62
		c3.72,0,6.88,0,10.04,0c10.25,0,10.25,0,13.22-9.51c0.04-0.12,0.04-0.29,0.12-0.36c1.03-0.82,2.04-2.26,3.11-2.31
		c4.98-0.25,9.97-0.15,14.96-0.09c3.17,0.04,7.11-0.86,9.27,0.67c1.98,1.41,2.02,5.53,2.92,8.45c0.15,0.49,0.21,1.09,0.53,1.42
		c0.65,0.65,1.44,1.61,2.19,1.63c6.11,0.13,12.22,0.07,18.55,0.07c-0.16-1.21-0.15-1.98-0.37-2.67
		c-8.02-25.17-16.04-50.34-24.21-75.46c-0.36-1.1-2.21-2.37-3.42-2.42c-6-0.25-12.03,0.06-18.03-0.19c-2.9-0.12-3.92,1.02-4.73,3.62
		c-7.59,24.23-15.33,48.42-23.01,72.63C147.85,136.39,147.59,137.73,147.11,139.62z M298.65,99.07c0.06,0,0.13,0,0.19,0
		c0,5.37-0.35,10.76,0.07,16.1c0.82,10.26,6.12,17.65,15.41,22.13c6.32,3.04,13.05,3.44,19.87,2.92
		c14.81-1.12,25.05-10.91,26.52-25.03c0.28-2.7-0.21-4.12-3.33-3.98c-4.21,0.19-8.44,0.15-12.66,0.01c-2.41-0.08-3.29,0.71-3.58,3.2
		c-0.73,6.23-5.42,9.61-12.31,9.29c-6.17-0.29-10.6-4.29-10.73-10.28c-0.2-9.46-0.21-18.93,0.01-28.38
		c0.14-5.96,4.67-9.99,10.78-10.26c6.9-0.31,11.53,3.06,12.24,9.34c0.29,2.55,1.3,3.21,3.64,3.14c4.22-0.13,8.44-0.16,12.66,0
		c2.86,0.11,3.55-1.24,3.34-3.75c-0.87-10.3-5.86-17.76-15.21-22.24c-6.43-3.08-13.29-3.54-20.24-3.02
		c-15.51,1.16-25.95,11.87-26.65,27.38C298.48,90.12,298.65,94.6,298.65,99.07z M457.76,75.67c1.07-0.06,1.7-0.13,2.33-0.13
		c10.62-0.01,21.25-0.07,31.87,0.04c2.81,0.03,3.92-0.88,3.71-3.76c-0.22-3.06-0.21-6.15,0-9.21c0.19-2.79-0.65-3.77-3.62-3.75
		c-16.76,0.14-33.53,0.16-50.29-0.01c-3.29-0.03-3.77,1.25-3.75,4.06c0.1,15.1,0.05,30.2,0.05,45.3c0,9.34,0,18.68,0,28.03
		c0,1.71-0.15,3.4,2.43,3.36c5.48-0.08,10.97-0.02,17.05-0.02c0-10.98,0-21.64,0-32.55c7.61,0,14.63,0.07,21.65-0.07
		c1.16-0.02,3.26-0.93,3.3-1.52c0.27-4.91,0.15-9.83,0.15-15.07c-8.66,0-16.67,0-24.86,0C457.76,85.34,457.76,80.67,457.76,75.67z
		 M39.18,75.53c1.82,0,3.21,0,4.6,0c9.86,0,19.71-0.07,29.57,0.04c2.77,0.03,3.95-0.81,3.76-3.73c-0.22-3.31-0.12-6.65-0.03-9.98
		c0.06-2.06-0.56-2.98-2.82-2.97c-17.28,0.07-34.56,0.06-51.84,0c-2.15-0.01-2.96,0.73-2.96,2.89c0.04,24.96,0.05,49.92-0.01,74.87
		c-0.01,2.44,1.06,3.06,3.27,3c4.22-0.11,8.46-0.2,12.67,0.03c3.01,0.16,3.7-1.13,3.67-3.83c-0.11-8.19-0.05-16.38-0.03-24.57
		c0-1.35,0.11-2.7,0.18-4.26c5.3,0,10.15,0,15,0c9.91,0,9.94,0,9.9-9.81c-0.03-8.04,0.79-6.7-6.64-6.78
		c-6.08-0.07-12.16-0.01-18.29-0.01C39.18,85.24,39.18,80.67,39.18,75.53z M500.22,59.19c9.15,26.46,4.83,53.61,7.34,80.14
		c5.76,0,11.44,0,16.97,0c2.46-26.85-1.4-54,7.74-80.14C521.38,59.19,511.06,59.19,500.22,59.19z M519.34,57.98
		c0.24-1.37,0.51-2.61,0.66-3.86c1.12-9.26,2.17-18.52,3.32-27.77c1.02-8.21,1.72-5.73-5.26-9.46c-3.69-1.97-5.93,1.12-8.71,2.18
		c-0.8,0.31-1.69,1.94-1.58,2.85c1.45,12.01,3.06,24,4.65,36.05C514.87,57.98,517.01,57.98,519.34,57.98z M508.73,57.99
		c-1.37-12.08-2.7-23.78-4.09-36c-4.34,4.16-8,8.27-7.51,14.11c0.62,7.33,1.93,14.59,2.94,21.89
		C503.12,57.99,505.77,57.99,508.73,57.99z M532.18,57.95c0.83-6.96,1.69-13.55,2.39-20.16c0.69-6.53-2.33-11.34-7.05-15.48
		c-1.45,12.09-2.85,23.8-4.27,35.64C526.29,57.95,529.07,57.95,532.18,57.95z"/>
	<path class="st1" d="M585.39,103.41c0-13.16,0-26.31,0-39.47c0-5.01,0-5.01,5.06-5.01c3.71,0,7.43,0.11,11.13-0.04
		c2.28-0.09,3.17,0.59,3.17,3c-0.07,24.95-0.06,49.91-0.01,74.86c0,2.16-0.75,3.1-2.91,2.83c-0.25-0.03-0.51,0-0.77,0
		c-4.85-0.07-10.53,1.38-14.33-0.66c-3.62-1.95-5.32-7.52-7.8-11.54c-6.49-10.53-12.94-21.08-20.1-31.5c0,14.42,0,28.84,0,43.69
		c-6.07,0-11.67,0.08-17.26-0.09c-0.73-0.02-1.61-1.18-2.08-2.01c-0.33-0.59-0.08-1.5-0.08-2.27c0-23.8,0.08-47.6-0.08-71.41
		c-0.02-3.83,0.98-5.31,4.95-4.94c4.55,0.43,9.95-1.1,13.5,0.88c3.4,1.9,4.94,7.18,7.24,11.02c6.56,10.94,13.1,21.89,19.64,32.84
		C584.92,103.53,585.16,103.47,585.39,103.41z"/>
	<path class="st1" d="M630.92,94.84c0,15.46,0,29.83,0,44.71c-6.02,0-11.73,0.06-17.43-0.09c-0.63-0.02-1.47-1.12-1.78-1.89
		c-0.31-0.77-0.09-1.76-0.09-2.66c0-23.55,0-47.09,0-70.64c0-5.35,0.01-5.39,5.15-5.34c4.46,0.05,9.69-1.18,13.15,0.73
		c3.31,1.83,4.81,6.96,7.05,10.68c6.65,11.06,13.27,22.14,20.29,33.87c0.17-1.54,0.36-2.43,0.36-3.32c0-12.54,0.07-25.08-0.1-37.62
		c-0.04-3.23,0.72-4.68,4.26-4.42c4.07,0.3,8.19,0.17,12.28,0.03c2.21-0.07,2.88,0.78,2.87,2.9c-0.05,24.95-0.04,49.91,0,74.86
		c0,2.06-0.53,3.23-2.81,2.93c-0.25-0.03-0.51,0-0.77,0c-4.86-0.06-10.52,1.4-14.33-0.63c-3.62-1.93-5.36-7.47-7.84-11.48
		c-5.9-9.57-11.75-19.18-17.63-28.77C632.94,97.68,632.22,96.72,630.92,94.84z"/>
	<path class="st2" d="M272.09,103.4c0-5.83,0.01-11.65,0-17.48c-0.01-7.68,0.05-15.36-0.09-23.04c-0.05-2.87,0.67-4.24,3.89-4.02
		c4.08,0.27,8.19,0.16,12.28,0.03c2.2-0.07,3.24,0.47,3.24,2.95c-0.07,24.96-0.06,49.92-0.01,74.88c0,2.12-0.72,3.13-2.89,2.9
		c-0.25-0.03-0.51,0-0.77,0c-4.85-0.09-10.53,1.33-14.32-0.72c-3.63-1.96-5.34-7.51-7.82-11.53c-6.49-10.53-12.94-21.09-20.15-31.49
		c0,14.44,0,28.89,0,43.73c-6.09,0-11.71,0.12-17.3-0.15c-0.74-0.04-1.94-2.08-1.97-3.21c-0.18-7.16-0.09-14.33-0.09-21.5
		c0-17.02,0.08-34.05-0.07-51.07c-0.03-3.57,0.83-5.14,4.7-4.81c4.57,0.39,10.01-1.22,13.53,0.78c3.51,1.99,5.17,7.32,7.54,11.25
		c5.94,9.86,11.81,19.75,17.72,29.63c0.62,1.04,1.29,2.05,1.94,3.07C271.66,103.52,271.88,103.46,272.09,103.4z"/>
	<path class="st3" d="M128.41,105.99c5.24,10.97,10.47,21.94,16.04,33.62c-6.87,0-12.85,0.14-18.81-0.13
		c-1.04-0.05-2.39-1.67-2.94-2.86c-3.59-7.77-7-15.61-10.47-23.44c-2.94-6.64-2.94-6.64-11.01-5.33c0,7.82,0,15.71,0,23.61
		c0,0.9,0,1.79,0,2.69c0,5.49,0,5.49-5.36,5.49c-3.58,0-7.17-0.1-10.75,0.03c-2.37,0.09-3.47-0.57-3.47-3.2
		c0.07-24.82,0.07-49.64,0-74.46c-0.01-2.73,1.25-3.12,3.53-3.1c11.26,0.08,22.52-0.03,33.78,0.06c12,0.1,20.97,7.22,23.62,18.57
		c2.82,12.07-1.93,22.1-13.07,27.63C129.19,105.31,128.92,105.59,128.41,105.99z M101.22,93c5.95-0.32,11.32-0.21,16.56-1.01
		c4.27-0.65,6.29-4.08,6.09-8.43c-0.19-4.1-2.89-7.46-7.03-7.75c-5.04-0.35-10.12-0.08-15.43-0.08c-0.07,1.08-0.17,1.93-0.18,2.79
		C101.21,83.1,101.22,87.67,101.22,93z"/>
	<path class="st4" d="M367.04,99.21c0-4.47-0.21-8.96,0.04-13.42c0.85-15.4,11.75-26.49,27.19-27.47c4.29-0.27,8.74-0.07,12.95,0.74
		c13.72,2.64,22.74,13.72,22.92,27.73c0.1,8.05,0.08,16.11,0.01,24.17c-0.14,16.11-11.02,28.05-27.13,29.14
		c-5.13,0.35-10.55-0.07-15.52-1.37c-11.97-3.12-19.47-12.63-20.29-24.96c-0.32-4.84-0.05-9.71-0.05-14.57
		C367.12,99.21,367.08,99.21,367.04,99.21z M386.37,99.2c0,4.09,0,8.19,0,12.28c0,0.26,0.01,0.51,0.02,0.77
		c0.38,6.58,4.77,11.09,11.12,11.46c7.11,0.4,12.47-3.33,12.87-10.2c0.55-9.43,0.55-18.93,0.02-28.35
		c-0.39-6.91-5.73-10.73-12.76-10.37c-6.46,0.32-11.01,5-11.24,11.75C386.27,90.75,386.38,94.98,386.37,99.2z"/>
	<path class="st2" d="M147.11,139.62c0.48-1.89,0.74-3.23,1.15-4.52c7.68-24.21,15.42-48.4,23.01-72.63
		c0.81-2.6,1.83-3.74,4.73-3.62c6,0.25,12.03-0.06,18.03,0.19c1.21,0.05,3.06,1.32,3.42,2.42c8.18,25.12,16.19,50.29,24.21,75.46
		c0.22,0.69,0.21,1.46,0.37,2.67c-6.33,0-12.44,0.06-18.55-0.07c-0.75-0.02-1.55-0.98-2.19-1.63c-0.33-0.33-0.38-0.93-0.53-1.42
		c-0.9-2.92-0.94-7.04-2.92-8.45c-2.16-1.54-6.1-0.64-9.27-0.67c-4.99-0.06-9.98-0.15-14.96,0.09c-1.08,0.05-2.08,1.49-3.11,2.31
		c-0.08,0.07-0.08,0.24-0.12,0.36c-2.98,9.51-2.98,9.51-13.22,9.51C153.98,139.62,150.82,139.62,147.11,139.62z M175.53,112.43
		c6.35,0,12.11,0,18.18,0c-2.97-9.88-5.84-19.43-8.72-28.98c-0.28-0.03-0.57-0.05-0.85-0.08
		C181.29,93.01,178.43,102.63,175.53,112.43z"/>
	<path class="st3" d="M298.65,99.07c0-4.48-0.17-8.96,0.03-13.42c0.7-15.51,11.14-26.23,26.65-27.38
		c6.95-0.52,13.81-0.05,20.24,3.02c9.36,4.48,14.35,11.93,15.21,22.24c0.21,2.51-0.48,3.86-3.34,3.75c-4.21-0.16-8.44-0.13-12.66,0
		c-2.34,0.07-3.35-0.59-3.64-3.14c-0.72-6.29-5.34-9.65-12.24-9.34c-6.12,0.27-10.64,4.3-10.78,10.26
		c-0.23,9.46-0.21,18.93-0.01,28.38c0.12,5.99,4.56,9.99,10.73,10.28c6.89,0.32,11.58-3.06,12.31-9.29c0.29-2.48,1.17-3.28,3.58-3.2
		c4.21,0.15,8.44,0.19,12.66-0.01c3.13-0.14,3.61,1.28,3.33,3.98c-1.46,14.12-11.71,23.91-26.52,25.03
		c-6.82,0.52-13.55,0.12-19.87-2.92c-9.3-4.48-14.6-11.88-15.41-22.13c-0.42-5.33-0.07-10.73-0.07-16.1
		C298.78,99.07,298.71,99.07,298.65,99.07z"/>
	<path class="st5" d="M457.76,75.67c0,5,0,9.67,0,14.68c8.18,0,16.2,0,24.86,0c0,5.24,0.12,10.16-0.15,15.07
		c-0.03,0.59-2.14,1.5-3.3,1.52c-7.02,0.14-14.04,0.07-21.65,0.07c0,10.92,0,21.57,0,32.55c-6.08,0-11.56-0.05-17.05,0.02
		c-2.58,0.04-2.43-1.65-2.43-3.36c0-9.34,0-18.68,0-28.03c0-15.1,0.05-30.2-0.05-45.3c-0.02-2.82,0.46-4.1,3.75-4.06
		c16.76,0.17,33.53,0.15,50.29,0.01c2.96-0.02,3.8,0.95,3.62,3.75c-0.21,3.06-0.22,6.15,0,9.21c0.21,2.89-0.9,3.79-3.71,3.76
		c-10.62-0.11-21.24-0.04-31.87-0.04C459.45,75.54,458.82,75.61,457.76,75.67z"/>
	<path class="st6" d="M39.18,75.53c0,5.13,0,9.71,0,14.88c6.12,0,12.21-0.05,18.29,0.01c7.43,0.08,6.6-1.26,6.64,6.78
		c0.04,9.81,0.01,9.81-9.9,9.81c-4.85,0-9.7,0-15,0c-0.07,1.57-0.18,2.92-0.18,4.26c-0.02,8.19-0.08,16.38,0.03,24.57
		c0.04,2.69-0.66,3.99-3.67,3.83c-4.21-0.23-8.45-0.13-12.67-0.03c-2.2,0.06-3.27-0.57-3.27-3c0.05-24.96,0.05-49.92,0.01-74.87
		c0-2.15,0.81-2.9,2.96-2.89c17.28,0.06,34.56,0.06,51.84,0c2.26-0.01,2.88,0.92,2.82,2.97c-0.09,3.33-0.19,6.67,0.03,9.98
		c0.2,2.93-0.99,3.76-3.76,3.73c-9.85-0.11-19.71-0.04-29.57-0.04C42.39,75.53,41,75.53,39.18,75.53z"/>
	<path class="st7" d="M500.22,59.19c10.84,0,21.17,0,32.05,0c-9.15,26.13-5.28,53.28-7.74,80.14c-5.53,0-11.21,0-16.97,0
		C505.05,112.79,509.37,85.65,500.22,59.19z"/>
	<path class="st8" d="M519.34,57.98c-2.33,0-4.46,0-6.92,0c-1.58-12.05-3.2-24.04-4.65-36.05c-0.11-0.91,0.78-2.54,1.58-2.85
		c2.78-1.06,5.02-4.15,8.71-2.18c6.98,3.73,6.28,1.24,5.26,9.46c-1.15,9.25-2.2,18.52-3.32,27.77
		C519.85,55.38,519.58,56.61,519.34,57.98z"/>
	<path class="st9" d="M508.73,57.99c-2.97,0-5.62,0-8.67,0c-1.01-7.3-2.32-14.56-2.94-21.89c-0.49-5.84,3.17-9.95,7.51-14.11
		C506.03,34.21,507.36,45.91,508.73,57.99z"/>
	<path class="st10" d="M532.18,57.95c-3.11,0-5.89,0-8.94,0c1.42-11.84,2.82-23.54,4.27-35.64c4.73,4.14,7.74,8.95,7.05,15.48
		C533.87,44.4,533.01,51,532.18,57.95z"/>
	<path class="st0" d="M101.22,93c0-5.33-0.01-9.9,0.01-14.48c0-0.86,0.11-1.72,0.18-2.79c5.31,0,10.39-0.27,15.43,0.08
		c4.15,0.29,6.84,3.65,7.03,7.75c0.2,4.35-1.82,7.78-6.09,8.43C112.54,92.8,107.17,92.69,101.22,93z"/>
	<path class="st11" d="M386.38,99.2c0.01-4.22-0.11-8.45,0.03-12.67c0.23-6.76,4.78-11.43,11.24-11.75
		c7.03-0.35,12.37,3.47,12.76,10.37c0.53,9.43,0.53,18.93-0.02,28.35c-0.4,6.87-5.76,10.6-12.87,10.2
		c-6.36-0.36-10.75-4.88-11.12-11.46c-0.01-0.26-0.02-0.51-0.02-0.77C386.37,107.39,386.37,103.3,386.38,99.2z"/>
	<path class="st12" d="M175.53,112.43c2.9-9.8,5.76-19.43,8.61-29.06c0.28,0.03,0.57,0.05,0.85,0.08c2.87,9.55,5.75,19.1,8.72,28.98
		C187.64,112.43,181.88,112.43,175.53,112.43z"/>
</g>
</svg>
