<?xml version="1.0" encoding="utf-8"?>
<!-- Generator: Adobe Illustrator 26.2.1, SVG Export Plug-In . SVG Version: 6.00 Build 0)  -->
<svg version="1.1" id="Layer_3" xmlns="http://www.w3.org/2000/svg" xmlns:xlink="http://www.w3.org/1999/xlink" x="0px" y="0px"
	 viewBox="0 0 717.09 581.59" style="enable-background:new 0 0 717.09 581.59;" xml:space="preserve">
<style type="text/css">
	.st0{display:none;fill:#1D1D1C;}
	.st1{fill:#F3F3F3;}
	.st2{fill:#FDC733;}
	.st3{fill:#FDC833;}
</style>
<g>
	<path class="st0" d="M10.85,12.38c233.12,0,466.24,0,699.36,0c0,186.88,0,373.76,0,560.64c-233.12,0-466.24,0-699.36,0
		C10.85,386.14,10.85,199.26,10.85,12.38z M305.58,185.65c-0.14-0.03-0.23,0.02-0.25,0.17c-0.92-0.27-1.9-0.41-2.74-0.83
		c-4.16-2.08-8.27-4.25-12.41-6.34c-1.98-1-4.05-1.85-6.02-2.86c-3.5-1.8-6.94-3.7-10.44-5.5c-4.63-2.37-9.29-4.68-13.94-7.03
		c-2.18-1.1-4.35-2.23-6.53-3.33c-3.6-1.83-7.21-3.66-10.82-5.48c-3.81-1.92-7.65-3.79-11.45-5.73c-5.23-2.68-10.38-5.51-15.66-8.09
		c-4.39-2.15-8.93-3.99-13.36-6.06c-4.28-2-8.5-4.14-12.77-6.17c-5.13-2.44-10.28-4.82-15.41-7.25c-5.28-2.5-10.55-5.05-15.83-7.56
		c-5.42-2.58-10.85-5.12-16.28-7.69c-5.5-2.6-11-5.19-16.48-7.82c-5.69-2.73-11.36-5.52-17.05-8.25c-4.9-2.35-9.83-4.65-14.75-6.97
		c-5.43-2.56-10.87-5.12-16.3-7.7c-5.35-2.54-10.7-5.08-16.03-7.64c-5.76-2.76-11.5-5.57-17.26-8.32c-3.85-1.84-7.72-3.62-11.6-5.4
		c-1.4-0.65-2.83-1.24-4.54-1.98c-0.44,1.7-0.93,3.11-1.16,4.57c-0.9,5.67-2.22,11.34-2.44,17.05c-0.32,8.36-0.73,16.77,0.5,25.14
		c0.76,5.2,1.31,10.41,3.02,15.43c1.43,4.19,2.63,8.47,4.04,12.67c1.75,5.19,4.16,10.11,6.76,14.89c2.68,4.91,5.86,9.56,9.05,14.18
		c2.5,3.63,5.31,7.04,8.04,10.51c1.27,1.61,2.66,3.14,4.04,4.67c1.9,2.11,3.78,4.24,5.78,6.25c1.83,1.84,3.77,3.57,5.72,5.27
		c3.57,3.12,7.11,6.27,10.79,9.25c2.64,2.14,5.44,4.09,8.24,6.01c4.48,3.07,8.92,6.23,13.58,9.03c4.66,2.8,9.54,5.22,14.36,7.76
		c5.02,2.65,10.11,5.19,15.11,7.87c6.89,3.68,13.73,7.45,20.59,11.18c4.79,2.6,9.58,5.18,14.36,7.79c4.99,2.73,9.97,5.5,14.95,8.25
		c3.59,1.98,7.19,3.94,10.76,5.95c3.1,1.74,6.14,3.58,9.24,5.32c4.74,2.68,9.52,5.29,14.24,8c0.62,0.35,1.17,1.06,1.44,1.73
		c0.46,1.15,0.69,2.4,1,3.61c1.3,5.07,2.59,10.15,3.88,15.22c1.27,5,2.53,10,3.79,15c1.3,5.16,2.58,10.32,3.87,15.48
		c1.27,5.08,2.54,10.16,3.81,15.25c1.29,5.16,2.58,10.32,3.86,15.48c1.29,5.16,2.57,10.32,3.85,15.48
		c1.27,5.08,2.54,10.16,3.81,15.24c1.29,5.16,2.57,10.32,3.86,15.48c1.27,5.08,2.55,10.16,3.82,15.24
		c1.29,5.16,2.57,10.32,3.86,15.47c1.27,5.08,2.54,10.16,3.82,15.24c1.29,5.16,2.58,10.32,3.87,15.47
		c1.27,5.08,2.55,10.16,3.83,15.24c1.28,5.08,2.55,10.16,3.83,15.24c1.28,5.08,2.57,10.15,3.85,15.22
		c1.28,5.08,2.57,10.15,3.86,15.23c1.27,5,2.55,10,3.83,15c1.32,5.16,2.62,10.32,3.95,15.47c0.73,2.84,1.5,5.66,2.24,8.42
		c14.38,0,28.58,0,42.92,0c0-0.79,0-1.42,0-2.05c-0.04-9.68-0.01-19.36-0.14-29.03c-0.39-29.43-0.84-58.85-1.27-88.28
		c-0.45-31.34-0.71-62.69-2.36-94c-0.67-12.69-1.1-25.4-1.48-38.11c-0.33-11.19-1.12-22.33-2.67-33.41
		c-1.1-7.88-1.85-15.81-3.53-23.63c-1.4-6.52-2.21-13.15-3.85-19.65c-1.36-5.38-2.45-10.83-3.8-16.22
		c-1.77-7.1-3.96-14.05-6.11-21.02c-0.62-2.02-1.54-3.94-2.32-5.91c9.78-0.02,19.55-0.03,29.33-0.06c0.95,0,1.9-0.09,2.85-0.14
		c0.95,0.05,1.9,0.14,2.86,0.14c27.68,0.01,55.37,0.02,83.05,0.02c-0.74,2.66-1.5,5.32-2.22,7.99c-1.31,4.9-2.66,9.79-3.89,14.71
		c-1.46,5.85-2.81,11.73-4.2,17.61c-0.24,1.01-0.36,2.04-0.59,3.05c-0.97,4.26-2.01,8.51-2.92,12.78c-0.68,3.2-1.17,6.44-1.78,9.66
		c-0.67,3.51-1.47,7-2.04,10.53c-0.68,4.25-1.18,8.54-1.73,12.81c-0.26,1.98-0.45,3.97-0.67,5.95c-0.47,4.2-1.22,8.4-1.35,12.61
		c-0.59,19.19-1,38.38-1.49,57.56c-0.4,15.43-0.78,30.86-1.24,46.29c-0.33,10.79-0.8,21.57-1.17,32.36
		c-0.2,5.83-0.29,11.67-0.46,17.51c-0.44,15.19-0.89,30.38-1.34,45.57c-0.38,12.79-0.78,25.58-1.18,38.37
		c-0.09,2.96-0.22,5.91-0.34,8.87c-0.21,5.51-0.43,11.02-0.62,16.53c-0.01,0.2,0.17,0.42,0.22,0.54c15.09,0,30.09,0,44.98,0
		c0.66-2.11,1.32-3.98,1.82-5.89c1.3-4.91,2.54-9.83,3.77-14.76c1.57-6.23,3.14-12.47,4.66-18.71c1.45-5.94,2.82-11.9,4.28-17.84
		c1.08-4.39,2.3-8.75,3.37-13.15c1.45-5.94,2.79-11.91,4.21-17.86c0.94-3.93,1.93-7.86,2.88-11.79c0.58-2.4,1.1-4.81,1.71-7.2
		c0.9-3.54,1.88-7.05,2.77-10.59c1.03-4.08,1.99-8.18,2.97-12.27c1.32-5.48,2.64-10.96,3.97-16.44c1.24-5.09,2.51-10.18,3.75-15.27
		c1.3-5.32,2.58-10.65,3.87-15.97c1.27-5.25,2.55-10.49,3.83-15.73c1.28-5.25,2.56-10.49,3.83-15.74
		c1.27-5.24,2.55-10.49,3.81-15.73c1.29-5.32,2.56-10.65,3.85-15.97c1.25-5.17,2.53-10.34,3.79-15.51
		c1.33-5.48,2.68-10.96,3.97-16.45c1.06-4.49,1.98-9.01,3.12-13.49c0.25-1,0.91-2.17,1.74-2.71c3.39-2.19,6.9-4.2,10.4-6.22
		c2.93-1.7,5.93-3.29,8.86-4.99c5.78-3.37,11.51-6.83,17.32-10.16c5.4-3.1,10.89-6.06,16.32-9.12c3.51-1.98,6.96-4.05,10.48-6.02
		c3.23-1.81,6.52-3.54,9.77-5.31c6.02-3.29,12.03-6.61,18.06-9.9c4.86-2.65,9.73-5.28,14.61-7.89c4.39-2.35,8.6-5,12.65-7.88
		c4.18-2.97,8.4-5.91,12.41-9.1c7.11-5.67,13.77-11.83,19.95-18.52c4.94-5.36,9.5-11.04,13.73-16.95c2.67-3.72,5.11-7.63,7.28-11.66
		c2.73-5.06,5.24-10.26,7.56-15.52c1.53-3.46,2.8-7.07,3.79-10.72c1.47-5.44,2.8-10.94,3.78-16.49c0.7-3.99,0.89-8.1,1.01-12.16
		c0.16-5.11,0.08-10.24-0.01-15.36c-0.04-2.23-0.32-4.45-0.61-6.67c-0.36-2.76-0.8-5.5-1.29-8.24c-0.47-2.65-1.06-5.27-1.62-8.06
		c-0.78,0.16-1.45,0.17-1.99,0.44c-3.3,1.65-6.56,3.42-9.87,5.05c-3.91,1.92-7.88,3.71-11.79,5.63c-6.22,3.06-12.41,6.19-18.63,9.26
		c-3.4,1.69-6.83,3.32-10.24,4.99c-4.47,2.19-8.92,4.42-13.39,6.59c-3.12,1.52-6.28,2.96-9.41,4.45c-1.5,0.71-3.01,1.42-4.49,2.17
		c-3.22,1.62-6.42,3.3-9.66,4.9c-3.26,1.61-6.56,3.16-9.84,4.72c-1.36,0.65-2.74,1.24-4.08,1.91c-3.16,1.59-6.29,3.25-9.46,4.8
		c-4.34,2.12-8.73,4.11-13.06,6.24c-6.01,2.96-11.97,6.03-17.97,9c-5.31,2.63-10.66,5.19-15.99,7.77
		c-5.84,2.83-11.66,5.69-17.52,8.48c-1.7,0.81-3.54,1.36-5.23,2.2c-3.02,1.49-5.96,3.13-8.95,4.68c-5.04,2.6-10.09,5.19-15.15,7.76
		c-5.42,2.75-10.84,5.49-16.28,8.21c-3.74,1.87-7.53,3.67-11.26,5.57c-6.28,3.19-12.52,6.45-18.79,9.64
		c-4.16,2.12-8.35,4.18-12.54,6.25c-1.91,0.95-3.83,1.88-5.74,2.81c0.22-3.5,0.34-7.01,0.7-10.49c0.36-3.4,1.06-6.77,1.45-10.17
		c0.65-5.63,1.16-11.28,1.73-16.93c0.18-1.83,0.31-3.67,0.57-5.48c0.47-3.39,1.11-6.76,1.51-10.16c0.71-6.03,1.29-12.07,1.96-18.11
		c0.3-2.69,0.69-5.38,1.02-8.07c0.42-3.39-0.29-6.71-0.95-9.97c-0.73-3.65-1.65-7.32-3-10.78c-1.29-3.3-3.12-6.41-4.94-9.46
		c-1.86-3.13-3.76-6.29-6.07-9.08c-3.27-3.95-6.91-7.6-10.46-11.32c-0.71-0.74-1.36-1.82-2.74-1.65c-0.31,3.95-0.67,7.85-0.91,11.75
		c-0.31,5.03-0.49,10.06-0.79,15.09c-0.25,4.07-0.56,8.13-0.9,12.19c-0.41,4.77-0.83,9.54-1.33,14.31
		c-0.69,6.59-1.42,13.18-2.19,19.76c-0.23,1.97-0.71,3.9-1.03,5.86c-0.94,5.91-1.84,11.83-2.78,17.73
		c-0.34,2.11-0.77,4.21-1.13,6.31c-0.85,4.95-1.67,9.91-2.54,14.86c-0.44,2.5-0.95,4.99-1.43,7.49c-0.4,2.1-0.8,4.2-1.2,6.28
		c-4.17,0-8.06,0-11.99,0c-0.04-0.45-0.12-0.77-0.08-1.07c0.55-4.68,1.12-9.36,1.66-14.04c0.18-1.51,0.24-3.03,0.46-4.53
		c0.47-3.23,1.09-6.44,1.48-9.68c0.65-5.31,1.18-10.64,1.75-15.96c0.19-1.75,0.33-3.5,0.58-5.24c0.47-3.23,1.1-6.44,1.5-9.68
		c0.65-5.31,1.17-10.64,1.75-15.96c0.19-1.75,0.32-3.5,0.57-5.24c0.48-3.31,1.12-6.6,1.53-9.91c0.7-5.55,1.26-11.11,1.9-16.67
		c0.33-2.84,0.71-5.68,1.07-8.52c0.02-0.32,0.03-0.64,0.05-0.96c0.94-7.35,1.88-14.7,2.79-21.76c-0.36-0.44-0.43-0.62-0.55-0.68
		c-3.49-1.67-6.98-3.35-10.49-4.99c-5.95-2.77-11.92-5.51-17.88-8.27c-1.6-0.74-3.07-0.84-4.74,0.06c-3.47,1.88-7.04,3.6-10.59,5.32
		c-5.41,2.62-10.82,5.24-16.29,7.72c-1.3,0.59-1.61,1.25-1.44,2.54c0.67,4.81,1.26,9.62,1.9,14.44c0.65,4.9,1.33,9.8,1.99,14.71
		c0.63,4.65,1.23,9.31,1.86,13.96c0.65,4.82,1.33,9.64,1.98,14.47c0.61,4.58,1.19,9.16,1.81,13.74c0.65,4.82,1.34,9.64,1.99,14.46
		c0.64,4.73,1.24,9.47,1.88,14.21c0.65,4.82,1.31,9.65,1.99,14.47c0.73,5.21,1.5,10.4,2.2,15.61c0.33,2.43,0.52,4.88,0.81,7.61
		c-3.47,0-6.72,0.03-9.98-0.02c-0.95-0.01-1.89-0.21-2.83-0.33c-0.33-2.03-0.7-4.06-0.99-6.1c-0.57-4.03-1.08-8.07-1.66-12.1
		c-0.32-2.21-0.75-4.4-1.11-6.6c-0.42-2.59-0.84-5.18-1.21-7.78c-0.26-1.82-0.39-3.65-0.68-5.47c-0.98-6.3-2.19-12.57-2.96-18.9
		c-0.94-7.69-1.54-15.42-2.25-23.13c-0.37-4.06-0.64-8.13-1-12.19c-0.4-4.61-0.93-9.21-1.26-13.83c-0.58-8.21-1.05-16.43-1.59-24.65
		c-0.02-0.27-0.21-0.54-0.43-1.07c-0.97,0.72-1.86,1.24-2.58,1.93c-1.83,1.75-3.54,3.63-5.39,5.36c-3.77,3.53-7.07,7.48-9.95,11.75
		c-2.26,3.35-4.49,6.75-6.27,10.36c-1.63,3.32-3.02,6.86-3.83,10.45c-1.12,4.97-1.89,10.05-0.98,15.21
		c0.68,3.84,1.15,7.71,1.69,11.57c0.85,6,1.68,12.01,2.51,18.01c0.12,0.64,0.25,1.29,0.37,1.93c0.08,0.96,0.15,1.91,0.23,2.87
		c0.26,0.96,0.53,1.91,0.79,2.87c0.06,0.8,0.12,1.61,0.18,2.41c0.2,0.76,0.4,1.53,0.61,2.29c0.08,1.16,0.15,2.32,0.23,3.47
		c0.13,0.64,0.25,1.28,0.38,1.92c0.08,0.96,0.15,1.92,0.23,2.87c0.2,0.76,0.41,1.52,0.61,2.28c0.07,1.16,0.15,2.32,0.22,3.48
		c0.13,0.64,0.26,1.28,0.39,1.92c0.06,0.8,0.12,1.6,0.18,2.4c-0.16,1.07-0.01,2.06,0.78,2.88c0.06,0.8,0.13,1.6,0.19,2.4
		c0.2,0.77,0.4,1.54,0.6,2.31c0.07,1.15,0.15,2.3,0.22,3.45c0.13,0.64,0.26,1.29,0.39,1.93c0.08,0.95,0.15,1.91,0.23,2.86
		C305.71,185.02,305.64,185.33,305.58,185.65z M693.3,235.45c-1.06,0.32-1.44,0.4-1.8,0.55c-5.04,2.09-10.07,4.2-15.12,6.27
		c-3,1.23-6.04,2.39-9.05,3.59c-1.47,0.59-2.95,1.17-4.42,1.78c-4.23,1.75-8.45,3.54-12.7,5.26c-5.29,2.14-10.6,4.21-15.91,6.31
		c-4.93,1.95-9.85,3.91-14.77,5.86c-3.16,1.25-6.32,2.5-9.48,3.76c-1.62,0.64-3.25,1.29-4.87,1.94c-4.25,1.71-8.49,3.47-12.76,5.13
		c-5.76,2.24-11.57,4.4-17.33,6.63c-4.33,1.68-8.6,3.48-12.94,5.13c-5.4,2.05-10.84,4-16.25,6.01c-4.96,1.84-9.87,3.79-14.87,5.53
		c-5.44,1.89-10.96,3.6-16.51,5.41c-0.51,2.04-1.02,4.12-1.54,6.21c-1.11,4.47-2.22,8.93-3.32,13.4c-0.99,4-2.01,7.99-2.95,12
		c-0.8,3.41-1.46,6.86-2.27,10.28c-0.93,3.93-2,7.83-2.93,11.76c-1.12,4.71-2.14,9.45-3.27,14.16c-0.94,3.94-2.02,7.85-2.96,11.79
		c-0.98,4.1-1.87,8.22-2.81,12.34c-0.29,1.27-0.6,2.54-0.96,4.06c0.74-0.23,1.26-0.33,1.73-0.54c4.75-2.09,9.49-4.2,14.25-6.28
		c2.9-1.27,5.81-2.5,8.74-3.71c6.21-2.58,12.42-5.14,18.64-7.7c3.2-1.32,6.41-2.63,9.62-3.93c4.97-2.01,9.94-4.01,14.91-6.03
		c4.45-1.8,8.89-3.61,13.33-5.43c6.13-2.52,12.23-5.12,18.4-7.56c5.61-2.22,10.93-5,16.04-8.18c3.22-2.01,6.5-3.95,9.53-6.22
		c4.18-3.12,8.17-6.48,12.2-9.8c1.58-1.3,3.03-2.77,4.54-4.17c1.86-1.73,3.81-3.36,5.54-5.21c3.07-3.29,6.09-6.65,8.98-10.11
		c3.48-4.17,6.95-8.36,10.15-12.75c3.25-4.46,6.27-9.09,9.2-13.77c3.47-5.55,6.81-11.17,10.04-16.86c1.91-3.36,3.59-6.86,5.2-10.38
		c2.43-5.31,4.73-10.69,7.06-16.05c0.82-1.89,1.59-3.8,2.29-5.74C692.4,238.82,692.74,237.38,693.3,235.45z M238.14,400.42
		c-0.23-1.32-0.32-2.18-0.53-3.01c-1.13-4.54-2.32-9.07-3.43-13.62c-1.45-5.94-2.83-11.9-4.28-17.84c-1.09-4.47-2.34-8.9-3.37-13.38
		c-1.19-5.19-2.23-10.39-3.79-15.5c-1.55-5.08-2.63-10.3-3.93-15.46c-1.3-5.15-2.65-10.29-3.88-15.46c-0.24-1.02-0.74-1.5-1.66-1.77
		c-2.87-0.87-5.75-1.71-8.6-2.67c-3.6-1.21-7.17-2.48-10.74-3.78c-6.9-2.53-13.8-5.09-20.68-7.66c-6.9-2.58-13.79-5.21-20.68-7.8
		c-2.67-1-5.39-1.91-8.04-2.96c-4.46-1.78-8.87-3.68-13.33-5.46c-4.24-1.7-8.53-3.29-12.78-4.96c-4.83-1.9-9.65-3.85-14.48-5.77
		c-3.22-1.28-6.44-2.57-9.65-3.85c-4.98-1.99-9.96-3.99-14.94-5.99c-4.75-1.9-9.5-3.8-14.24-5.71c-3.07-1.24-6.13-2.49-9.19-3.75
		c-2.98-1.23-5.96-2.48-8.95-3.69c-0.53-0.22-1.13-0.27-1.99-0.46c0.26,1.14,0.35,2.02,0.66,2.82c1.66,4.17,3.31,8.35,5.08,12.48
		c1.87,4.37,3.69,8.77,5.86,12.99c3.17,6.17,6.6,12.21,9.99,18.26c1.73,3.08,3.51,6.15,5.47,9.09c3.11,4.65,6.3,9.25,9.62,13.74
		c3.19,4.31,6.56,8.48,9.91,12.66c1.39,1.73,2.86,3.4,4.42,4.97c3.06,3.06,6.15,6.08,9.34,9.01c3.37,3.09,6.74,6.2,10.33,9.02
		c5.52,4.34,11.41,8.18,17.54,11.61c5.38,3.01,11.09,5.34,16.78,7.68c5.34,2.2,10.77,4.21,16.13,6.36
		c4.54,1.82,9.04,3.76,13.57,5.61c3.59,1.47,7.2,2.9,10.8,4.33c1.25,0.5,2.54,0.93,3.78,1.45c7.21,3.02,14.42,6.04,21.61,9.09
		c5.95,2.53,11.89,5.11,17.83,7.65C235.03,399.23,236.36,399.72,238.14,400.42z"/>
	<path class="st1" d="M306.52,186.74c0.78,1.97,1.7,3.89,2.32,5.91c2.15,6.97,4.34,13.93,6.11,21.02c1.35,5.39,2.44,10.84,3.8,16.22
		c1.64,6.5,2.45,13.13,3.85,19.65c1.68,7.82,2.43,15.74,3.53,23.63c1.55,11.08,2.33,22.22,2.67,33.41
		c0.38,12.71,0.81,25.41,1.48,38.11c1.65,31.31,1.91,62.66,2.36,94c0.43,29.43,0.88,58.85,1.27,88.28
		c0.13,9.68,0.1,19.36,0.14,29.03c0,0.63,0,1.26,0,2.05c-14.34,0-28.54,0-42.92,0c-0.73-2.76-1.51-5.59-2.24-8.42
		c-1.33-5.15-2.63-10.31-3.95-15.47c-1.28-5-2.56-10-3.83-15c-1.29-5.07-2.57-10.15-3.86-15.23c-1.28-5.07-2.57-10.15-3.85-15.22
		c-1.28-5.08-2.55-10.16-3.83-15.24c-1.28-5.08-2.56-10.16-3.83-15.24c-1.29-5.16-2.58-10.32-3.87-15.47
		c-1.27-5.08-2.55-10.16-3.82-15.24c-1.29-5.16-2.57-10.32-3.86-15.47c-1.27-5.08-2.55-10.16-3.82-15.24
		c-1.29-5.16-2.57-10.32-3.86-15.48c-1.27-5.08-2.54-10.16-3.81-15.24c-1.29-5.16-2.57-10.32-3.85-15.48
		c-1.29-5.16-2.58-10.32-3.86-15.48c-1.27-5.08-2.54-10.16-3.81-15.25c-1.29-5.16-2.58-10.32-3.87-15.48c-1.26-5-2.52-10-3.79-15
		c-1.29-5.08-2.58-10.15-3.88-15.22c-0.31-1.21-0.54-2.46-1-3.61c-0.27-0.67-0.83-1.37-1.44-1.73c-4.72-2.71-9.5-5.32-14.24-8
		c-3.09-1.75-6.14-3.58-9.24-5.32c-3.57-2.01-7.17-3.97-10.76-5.95c-4.98-2.75-9.96-5.51-14.95-8.25
		c-4.78-2.62-9.57-5.19-14.36-7.79c-6.86-3.73-13.7-7.5-20.59-11.18c-5.01-2.68-10.09-5.22-15.11-7.87
		c-4.81-2.54-9.7-4.96-14.36-7.76c-4.65-2.8-9.09-5.95-13.58-9.03c-2.8-1.92-5.6-3.87-8.24-6.01c-3.68-2.98-7.23-6.13-10.79-9.25
		c-1.95-1.71-3.9-3.44-5.72-5.27c-2-2.01-3.88-4.14-5.78-6.25c-1.38-1.53-2.77-3.05-4.04-4.67c-2.73-3.46-5.53-6.88-8.04-10.51
		c-3.18-4.61-6.37-9.27-9.05-14.18c-2.6-4.78-5.02-9.7-6.76-14.89c-1.41-4.2-2.61-8.47-4.04-12.67c-1.71-5.02-2.26-10.23-3.02-15.43
		c-1.23-8.37-0.82-16.78-0.5-25.14c0.22-5.71,1.54-11.37,2.44-17.05c0.23-1.46,0.72-2.87,1.16-4.57c1.71,0.75,3.14,1.34,4.54,1.98
		c3.87,1.79,7.75,3.57,11.6,5.4c5.77,2.75,11.5,5.56,17.26,8.32c5.34,2.56,10.68,5.1,16.03,7.64c5.43,2.57,10.86,5.13,16.3,7.7
		c4.92,2.32,9.85,4.62,14.75,6.97c5.69,2.73,11.36,5.52,17.05,8.25c5.48,2.63,10.99,5.22,16.48,7.82
		c5.43,2.57,10.86,5.11,16.28,7.69c5.28,2.51,10.54,5.06,15.83,7.56c5.13,2.43,10.29,4.81,15.41,7.25
		c4.27,2.03,8.49,4.17,12.77,6.17c4.43,2.07,8.97,3.91,13.36,6.06c5.27,2.58,10.43,5.41,15.66,8.09c3.8,1.95,7.63,3.82,11.45,5.73
		c3.61,1.82,7.21,3.65,10.82,5.48c2.18,1.11,4.35,2.23,6.53,3.33c4.64,2.34,9.31,4.65,13.94,7.03c3.5,1.8,6.94,3.7,10.44,5.5
		c1.98,1.01,4.04,1.86,6.02,2.86c4.15,2.09,8.26,4.26,12.41,6.34c0.84,0.42,1.83,0.56,2.74,0.83
		C305.73,186.12,306.12,186.43,306.52,186.74z"/>
	<path class="st1" d="M425.67,185.55c1.91-0.94,3.83-1.87,5.74-2.81c4.18-2.08,8.38-4.14,12.54-6.25
		c6.27-3.19,12.52-6.45,18.79-9.64c3.73-1.9,7.52-3.69,11.26-5.57c5.43-2.72,10.86-5.46,16.28-8.21c5.06-2.57,10.11-5.16,15.15-7.76
		c2.99-1.54,5.93-3.18,8.95-4.68c1.69-0.84,3.52-1.38,5.23-2.2c5.85-2.8,11.68-5.65,17.52-8.48c5.33-2.59,10.68-5.15,15.99-7.77
		c6.01-2.97,11.96-6.04,17.97-9c4.33-2.13,8.73-4.12,13.06-6.24c3.18-1.55,6.3-3.21,9.46-4.8c1.34-0.67,2.72-1.27,4.08-1.91
		c3.28-1.57,6.58-3.11,9.84-4.72c3.24-1.6,6.43-3.28,9.66-4.9c1.49-0.75,2.99-1.46,4.49-2.17c3.14-1.49,6.29-2.93,9.41-4.45
		c4.48-2.17,8.93-4.4,13.39-6.59c3.41-1.67,6.84-3.31,10.24-4.99c6.21-3.08,12.4-6.21,18.63-9.26c3.91-1.92,7.89-3.71,11.79-5.63
		c3.32-1.63,6.57-3.4,9.87-5.05c0.54-0.27,1.21-0.28,1.99-0.44c0.57,2.79,1.15,5.42,1.62,8.06c0.49,2.74,0.93,5.48,1.29,8.24
		c0.29,2.21,0.57,4.44,0.61,6.67c0.1,5.12,0.17,10.24,0.01,15.36c-0.13,4.06-0.31,8.17-1.01,12.16c-0.98,5.55-2.31,11.05-3.78,16.49
		c-0.99,3.65-2.26,7.26-3.79,10.72c-2.33,5.26-4.83,10.46-7.56,15.52c-2.18,4.02-4.62,7.94-7.28,11.66
		c-4.24,5.91-8.79,11.59-13.73,16.95c-6.18,6.69-12.84,12.86-19.95,18.52c-4.01,3.19-8.22,6.13-12.41,9.1
		c-4.06,2.88-8.26,5.54-12.65,7.88c-4.88,2.61-9.75,5.24-14.61,7.89c-6.03,3.29-12.04,6.6-18.06,9.9c-3.25,1.78-6.54,3.5-9.77,5.31
		c-3.51,1.97-6.97,4.04-10.48,6.02c-5.43,3.06-10.91,6.02-16.32,9.12c-5.81,3.33-11.53,6.79-17.32,10.16
		c-2.93,1.71-5.93,3.3-8.86,4.99c-3.5,2.02-7.01,4.03-10.4,6.22c-0.83,0.54-1.48,1.71-1.74,2.71c-1.13,4.47-2.06,9-3.12,13.49
		c-1.29,5.49-2.64,10.97-3.97,16.45c-1.26,5.17-2.53,10.33-3.79,15.51c-1.29,5.32-2.56,10.65-3.85,15.97
		c-1.27,5.25-2.54,10.49-3.81,15.73c-1.28,5.25-2.56,10.49-3.83,15.74c-1.28,5.24-2.56,10.49-3.83,15.73
		c-1.29,5.32-2.57,10.65-3.87,15.97c-1.24,5.09-2.51,10.18-3.75,15.27c-1.33,5.48-2.65,10.96-3.97,16.44
		c-0.99,4.09-1.95,8.19-2.97,12.27c-0.89,3.54-1.87,7.05-2.77,10.59c-0.61,2.39-1.13,4.8-1.71,7.2c-0.95,3.93-1.94,7.85-2.88,11.79
		c-1.42,5.95-2.76,11.91-4.21,17.86c-1.07,4.4-2.29,8.75-3.37,13.15c-1.46,5.94-2.83,11.9-4.28,17.84
		c-1.53,6.24-3.1,12.48-4.66,18.71c-1.24,4.92-2.48,9.85-3.77,14.76c-0.5,1.91-1.17,3.78-1.82,5.89c-14.89,0-29.89,0-44.98,0
		c-0.05-0.12-0.23-0.33-0.22-0.54c0.2-5.51,0.41-11.02,0.62-16.53c0.11-2.96,0.24-5.91,0.34-8.87c0.4-12.79,0.79-25.58,1.18-38.37
		c0.46-15.19,0.91-30.38,1.34-45.57c0.17-5.84,0.26-11.67,0.46-17.51c0.37-10.79,0.84-21.57,1.17-32.36
		c0.47-15.43,0.85-30.86,1.24-46.29c0.49-19.19,0.9-38.38,1.49-57.56c0.13-4.21,0.88-8.41,1.35-12.61c0.22-1.98,0.42-3.97,0.67-5.95
		c0.55-4.27,1.05-8.56,1.73-12.81c0.56-3.53,1.37-7.02,2.04-10.53c0.61-3.22,1.1-6.45,1.78-9.66c0.91-4.27,1.95-8.52,2.92-12.78
		c0.23-1.01,0.36-2.04,0.59-3.05c1.38-5.87,2.74-11.75,4.2-17.61c1.23-4.92,2.57-9.81,3.89-14.71c0.72-2.67,1.48-5.33,2.22-7.99
		C424.95,186.32,425.31,185.93,425.67,185.55z"/>
	<path class="st1" d="M693.3,235.45c-0.56,1.93-0.9,3.37-1.4,4.74c-0.7,1.94-1.47,3.85-2.29,5.74c-2.32,5.36-4.62,10.74-7.06,16.05
		c-1.61,3.52-3.3,7.02-5.2,10.38c-3.23,5.69-6.57,11.32-10.04,16.86c-2.92,4.68-5.95,9.31-9.2,13.77
		c-3.2,4.39-6.67,8.58-10.15,12.75c-2.89,3.46-5.91,6.81-8.98,10.11c-1.73,1.85-3.68,3.48-5.54,5.21c-1.5,1.4-2.96,2.86-4.54,4.17
		c-4.02,3.32-8.02,6.68-12.2,9.8c-3.04,2.27-6.31,4.21-9.53,6.22c-5.11,3.18-10.43,5.96-16.04,8.18c-6.16,2.44-12.27,5.04-18.4,7.56
		c-4.44,1.82-8.89,3.63-13.33,5.43c-4.97,2.01-9.94,4.01-14.91,6.03c-3.21,1.3-6.42,2.61-9.62,3.93c-6.21,2.56-12.43,5.12-18.64,7.7
		c-2.92,1.21-5.84,2.45-8.74,3.71c-4.76,2.08-9.5,4.2-14.25,6.28c-0.47,0.21-0.99,0.31-1.73,0.54c0.36-1.52,0.67-2.79,0.96-4.06
		c0.94-4.11,1.82-8.23,2.81-12.34c0.94-3.94,2.02-7.85,2.96-11.79c1.13-4.71,2.14-9.45,3.27-14.16c0.94-3.93,2-7.83,2.93-11.76
		c0.81-3.41,1.46-6.86,2.27-10.28c0.94-4.01,1.96-8,2.95-12c1.11-4.47,2.21-8.93,3.32-13.4c0.52-2.08,1.03-4.17,1.54-6.21
		c5.55-1.81,11.06-3.51,16.51-5.41c4.99-1.74,9.91-3.69,14.87-5.53c5.42-2.01,10.86-3.95,16.25-6.01c4.34-1.65,8.62-3.45,12.94-5.13
		c5.77-2.24,11.57-4.39,17.33-6.63c4.27-1.66,8.51-3.42,12.76-5.13c1.62-0.65,3.24-1.3,4.87-1.94c3.16-1.25,6.32-2.51,9.48-3.76
		c4.93-1.95,9.85-3.91,14.77-5.86c5.3-2.1,10.62-4.18,15.91-6.31c4.25-1.72,8.47-3.51,12.7-5.26c1.47-0.61,2.94-1.19,4.42-1.78
		c3.02-1.2,6.05-2.36,9.05-3.59c5.05-2.07,10.08-4.18,15.12-6.27C691.86,235.86,692.24,235.77,693.3,235.45z"/>
	<path class="st1" d="M238.14,400.42c-1.78-0.7-3.11-1.19-4.41-1.75c-5.95-2.54-11.88-5.12-17.83-7.65
		c-7.19-3.05-14.4-6.07-21.61-9.09c-1.24-0.52-2.53-0.95-3.78-1.45c-3.6-1.44-7.21-2.87-10.8-4.33c-4.53-1.85-9.03-3.79-13.57-5.61
		c-5.36-2.15-10.79-4.16-16.13-6.36c-5.69-2.34-11.4-4.67-16.78-7.68c-6.13-3.43-12.02-7.27-17.54-11.61
		c-3.59-2.82-6.96-5.93-10.33-9.02c-3.19-2.92-6.28-5.95-9.34-9.01c-1.57-1.57-3.04-3.24-4.42-4.97c-3.35-4.18-6.72-8.35-9.91-12.66
		c-3.33-4.49-6.52-9.09-9.62-13.74c-1.96-2.94-3.74-6.01-5.47-9.09c-3.39-6.05-6.82-12.09-9.99-18.26
		c-2.17-4.22-3.99-8.62-5.86-12.99c-1.77-4.13-3.42-8.3-5.08-12.48c-0.31-0.79-0.4-1.67-0.66-2.82c0.85,0.19,1.45,0.24,1.99,0.46
		c2.99,1.21,5.96,2.46,8.95,3.69c3.06,1.26,6.12,2.51,9.19,3.75c4.74,1.91,9.49,3.8,14.24,5.71c4.98,1.99,9.96,3.99,14.94,5.99
		c3.22,1.29,6.44,2.57,9.65,3.85c4.82,1.93,9.64,3.87,14.48,5.77c4.25,1.67,8.54,3.27,12.78,4.96c4.46,1.78,8.87,3.68,13.33,5.46
		c2.65,1.06,5.36,1.96,8.04,2.96c6.9,2.59,13.78,5.21,20.68,7.8c6.89,2.58,13.78,5.13,20.68,7.66c3.56,1.31,7.14,2.58,10.74,3.78
		c2.84,0.95,5.73,1.79,8.6,2.67c0.91,0.28,1.41,0.75,1.66,1.77c1.23,5.17,2.59,10.31,3.88,15.46c1.3,5.16,2.38,10.38,3.93,15.46
		c1.56,5.11,2.6,10.32,3.79,15.5c1.03,4.48,2.28,8.91,3.37,13.38c1.45,5.94,2.83,11.9,4.28,17.84c1.11,4.55,2.3,9.08,3.43,13.62
		C237.82,398.24,237.91,399.1,238.14,400.42z"/>
	<path class="st2" d="M425.67,185.55c-0.36,0.38-0.72,0.77-1.07,1.15c-27.68-0.01-55.37-0.01-83.05-0.02c-0.95,0-1.9-0.09-2.86-0.14
		c0.06-0.41,0.11-0.81,0.17-1.22c0.94,0.12,1.89,0.32,2.83,0.33c3.26,0.04,6.52,0.02,9.98,0.02c-0.29-2.73-0.48-5.18-0.81-7.61
		c-0.7-5.21-1.48-10.41-2.2-15.61c-0.67-4.82-1.34-9.64-1.99-14.47c-0.64-4.73-1.24-9.47-1.88-14.21
		c-0.65-4.82-1.34-9.64-1.99-14.46c-0.62-4.58-1.2-9.16-1.81-13.74c-0.65-4.82-1.32-9.64-1.98-14.47
		c-0.63-4.65-1.24-9.31-1.86-13.96c-0.66-4.9-1.34-9.8-1.99-14.71c-0.64-4.81-1.23-9.63-1.9-14.44c-0.18-1.29,0.13-1.95,1.44-2.54
		c5.47-2.47,10.88-5.1,16.29-7.72c3.56-1.72,7.12-3.44,10.59-5.32c1.66-0.9,3.14-0.8,4.74-0.06c5.96,2.76,11.93,5.5,17.88,8.27
		c3.51,1.64,7,3.32,10.49,4.99c0.13,0.06,0.2,0.23,0.55,0.68c-0.91,7.06-1.85,14.41-2.79,21.76c-0.23,0.15-0.46,0.3-0.69,0.46
		c0.21,0.17,0.43,0.33,0.64,0.5c-0.36,2.84-0.74,5.67-1.07,8.52c-0.64,5.55-1.21,11.12-1.9,16.67c-0.42,3.32-1.05,6.6-1.53,9.91
		c-0.25,1.74-0.38,3.49-0.57,5.24c-0.57,5.32-1.09,10.65-1.75,15.96c-0.4,3.24-1.03,6.45-1.5,9.68c-0.25,1.74-0.39,3.49-0.58,5.24
		c-0.58,5.32-1.1,10.65-1.75,15.96c-0.4,3.24-1.02,6.45-1.48,9.68c-0.22,1.5-0.28,3.02-0.46,4.53c-0.55,4.68-1.12,9.36-1.66,14.04
		c-0.04,0.3,0.04,0.62,0.08,1.07c3.93,0,7.82,0,11.99,0c0.4-2.08,0.8-4.18,1.2-6.28c0.48-2.5,0.99-4.99,1.43-7.49
		c0.87-4.95,1.68-9.91,2.54-14.86c0.36-2.11,0.8-4.2,1.13-6.31c0.94-5.91,1.84-11.83,2.78-17.73c0.31-1.96,0.79-3.9,1.03-5.86
		c0.78-6.58,1.5-13.17,2.19-19.76c0.5-4.76,0.93-9.54,1.33-14.31c0.35-4.06,0.66-8.13,0.9-12.19c0.3-5.03,0.48-10.06,0.79-15.09
		c0.24-3.9,0.6-7.8,0.91-11.75c1.38-0.17,2.03,0.91,2.74,1.65c3.55,3.72,7.19,7.37,10.46,11.32c2.31,2.79,4.21,5.95,6.07,9.08
		c1.82,3.06,3.65,6.17,4.94,9.46c1.35,3.46,2.27,7.13,3,10.78c0.65,3.26,1.37,6.58,0.95,9.97c-0.34,2.69-0.72,5.37-1.02,8.07
		c-0.67,6.03-1.24,12.08-1.96,18.11c-0.4,3.4-1.04,6.77-1.51,10.16c-0.25,1.82-0.38,3.66-0.57,5.48
		c-0.57,5.64-1.09,11.29-1.73,16.93c-0.39,3.4-1.1,6.77-1.45,10.17C426,178.54,425.89,182.05,425.67,185.55z"/>
	<path class="st3" d="M338.86,185.31c-0.06,0.41-0.11,0.81-0.17,1.22c-0.95,0.05-1.9,0.14-2.85,0.14
		c-9.78,0.03-19.55,0.04-29.33,0.06c-0.39-0.31-0.79-0.62-1.18-0.93c0.02-0.14,0.11-0.2,0.25-0.17c0.23-0.13,0.46-0.26,0.7-0.39
		c-0.17-0.19-0.34-0.37-0.51-0.56c-0.08-0.95-0.15-1.91-0.23-2.86c0.67-0.8,0.81-1.5-0.39-1.93c-0.07-1.15-0.15-2.3-0.22-3.46
		c0.08-0.84,0.51-1.78-0.61-2.31c-0.06-0.8-0.13-1.6-0.19-2.4c0.74-1.78,0.7-1.93-0.78-2.88c-0.06-0.8-0.12-1.6-0.18-2.4
		c0.62-0.79,0.76-1.49-0.39-1.92c-0.07-1.16-0.15-2.32-0.22-3.48c0.04-0.83,0.48-1.76-0.62-2.28c-0.08-0.96-0.15-1.92-0.23-2.87
		c0.64-0.79,0.78-1.49-0.38-1.92c-0.08-1.16-0.15-2.32-0.23-3.47c0.05-0.83,0.49-1.76-0.61-2.29c-0.06-0.8-0.12-1.61-0.18-2.41
		c0.7-1.79,0.66-1.92-0.79-2.87c-0.08-0.96-0.15-1.91-0.23-2.87c0.65-0.79,0.8-1.49-0.37-1.93c-0.84-6-1.67-12.01-2.51-18.01
		c-0.54-3.86-1.01-7.74-1.69-11.57c-0.91-5.17-0.14-10.25,0.98-15.21c0.81-3.6,2.2-7.14,3.83-10.45c1.78-3.61,4.01-7.02,6.27-10.36
		c2.88-4.27,6.17-8.21,9.95-11.75c1.85-1.73,3.56-3.61,5.39-5.36c0.72-0.69,1.61-1.21,2.58-1.93c0.22,0.53,0.41,0.79,0.43,1.07
		c0.53,8.22,1,16.44,1.59,24.65c0.33,4.62,0.86,9.22,1.26,13.83c0.36,4.06,0.63,8.13,1,12.19c0.71,7.72,1.31,15.45,2.25,23.13
		c0.77,6.33,1.98,12.6,2.96,18.9c0.28,1.81,0.41,3.65,0.68,5.47c0.37,2.6,0.79,5.19,1.21,7.78c0.36,2.2,0.79,4.4,1.11,6.6
		c0.58,4.03,1.09,8.07,1.66,12.1C338.16,181.25,338.53,183.28,338.86,185.31z"/>
	<path class="st2" d="M303.36,168.86c1.48,0.95,1.52,1.1,0.78,2.88C303.35,170.92,303.2,169.93,303.36,168.86z"/>
	<path class="st2" d="M299.53,142.94c1.45,0.95,1.49,1.08,0.79,2.87C300.06,144.85,299.8,143.89,299.53,142.94z"/>
	<path class="st2" d="M298.93,138.14c1.17,0.44,1.02,1.14,0.37,1.93C299.18,139.43,299.06,138.78,298.93,138.14z"/>
	<path class="st2" d="M300.51,148.22c1.09,0.52,0.66,1.46,0.61,2.29C300.91,149.75,300.71,148.98,300.51,148.22z"/>
	<path class="st2" d="M301.34,153.98c1.16,0.44,1.01,1.13,0.38,1.92C301.59,155.26,301.47,154.62,301.34,153.98z"/>
	<path class="st2" d="M301.95,158.78c1.09,0.52,0.66,1.45,0.62,2.28C302.36,160.3,302.15,159.54,301.95,158.78z"/>
	<path class="st2" d="M302.78,164.54c1.15,0.43,1.01,1.12,0.39,1.92C303.04,165.82,302.91,165.18,302.78,164.54z"/>
	<path class="st2" d="M304.33,174.14c1.12,0.53,0.69,1.46,0.61,2.31C304.73,175.68,304.53,174.91,304.33,174.14z"/>
	<path class="st2" d="M305.15,179.9c1.19,0.43,1.05,1.13,0.39,1.93C305.41,181.19,305.28,180.55,305.15,179.9z"/>
	<path class="st2" d="M392.39,69.02c-0.21-0.17-0.43-0.33-0.64-0.5c0.23-0.15,0.46-0.3,0.69-0.46
		C392.43,68.38,392.41,68.7,392.39,69.02z"/>
	<path class="st2" d="M305.77,184.7c0.17,0.19,0.34,0.37,0.51,0.56c-0.23,0.13-0.46,0.26-0.7,0.39
		C305.64,185.33,305.71,185.02,305.77,184.7z"/>
</g>
</svg>
