<svg width="58" height="41" viewBox="0 0 58 41" fill="none" xmlns="http://www.w3.org/2000/svg">
<path d="M55.7772 7.05545C56.356 9.23344 56.6516 12.6307 56.8001 15.5191C56.874 16.9559 56.911 18.2541 56.9295 19.1932C56.9387 19.6627 56.9433 20.0421 56.9456 20.3038C56.9468 20.4347 56.9473 20.5361 56.9476 20.6047L56.9479 20.6825L56.9479 20.702L56.9479 20.7068V20.708V20.7083V20.7086V20.7097L56.9479 20.7146L56.9479 20.7341L56.9476 20.8119C56.9473 20.8804 56.9468 20.9819 56.9456 21.1128C56.9433 21.3745 56.9387 21.7539 56.9295 22.2234C56.911 23.1624 56.874 24.4607 56.8001 25.8975C56.6516 28.7859 56.356 32.1831 55.7772 34.3611C55.1687 36.6399 53.3814 38.3741 51.0997 38.9858L51.0989 38.986C50.0418 39.2713 48.143 39.4939 45.8471 39.6626C43.5654 39.8303 40.9335 39.9423 38.4356 40.0171C35.9384 40.0919 33.5791 40.1292 31.8439 40.1479C30.9764 40.1573 30.2651 40.162 29.7708 40.1643C29.5237 40.1655 29.3308 40.166 29.1998 40.1663L29.0506 40.1666L29.0127 40.1666L29.0031 40.1666H29.0008H29.0002C29.0001 40.1666 29 40.1666 29 40.6666C29 40.1666 29 40.1666 28.9998 40.1666H28.9993H28.9969L28.9874 40.1666L28.9494 40.1666L28.8002 40.1663C28.6692 40.166 28.4764 40.1655 28.2292 40.1643C27.7349 40.162 27.0236 40.1573 26.1561 40.1479C24.4209 40.1292 22.0616 40.0919 19.5644 40.0171C17.0665 39.9423 14.4346 39.8303 12.1529 39.6626C9.85701 39.4939 7.95823 39.2713 6.90115 38.986L6.90031 38.9858C4.61766 38.3738 2.8311 36.6494 2.22281 34.3611C1.64405 32.1831 1.34839 28.7858 1.19987 25.8975C1.12599 24.4607 1.08903 23.1624 1.07055 22.2234C1.06131 21.7539 1.0567 21.3745 1.05439 21.1128C1.05324 20.9819 1.05267 20.8804 1.05238 20.8119L1.05213 20.7341L1.0521 20.7146L1.05209 20.7097L1.05209 20.7086L1.05209 20.7083L0.552094 20.7083L1.05209 20.7082L1.05209 20.708L1.05209 20.7068L1.0521 20.702L1.05213 20.6825L1.05238 20.6047C1.05267 20.5361 1.05324 20.4347 1.05439 20.3038C1.0567 20.0421 1.06131 19.6627 1.07055 19.1932C1.08903 18.2541 1.12599 16.9559 1.19987 15.5191C1.3484 12.6307 1.64406 9.23344 2.22282 7.05545C2.83349 4.75824 4.6267 2.95701 6.90031 2.34749L6.90115 2.34726C7.95823 2.0619 9.85701 1.83939 12.1529 1.67065C14.4346 1.50295 17.0665 1.39091 19.5644 1.31614C22.0616 1.2414 24.4209 1.20401 26.1561 1.18531C27.0236 1.17597 27.7349 1.1713 28.2292 1.16896C28.4764 1.16779 28.6692 1.16721 28.8002 1.16692L28.9494 1.16666L28.9874 1.16663L28.9969 1.16663L28.9993 1.16663L28.9998 1.16663C29 1.16663 29 1.16663 29 0.666626C29 1.16663 29.0001 1.16663 29.0002 1.16663L29.0008 1.16663L29.0031 1.16663L29.0127 1.16663L29.0506 1.16666L29.1998 1.16692C29.3308 1.16721 29.5237 1.16779 29.7708 1.16896C30.2651 1.1713 30.9764 1.17597 31.8439 1.18531C33.5791 1.20401 35.9384 1.2414 38.4356 1.31614C40.9335 1.39091 43.5654 1.50295 45.8471 1.67065C48.143 1.83939 50.0418 2.0619 51.0989 2.34726L51.0997 2.34749C53.3733 2.95701 55.1665 4.75824 55.7772 7.05545ZM55.7772 7.05545L56.2604 6.92704M55.7772 7.05545C55.7772 7.05547 55.7772 7.05548 55.7772 7.05549L56.2604 6.92704M56.2604 6.92704C57.4479 11.3958 57.4479 20.7083 57.4479 20.7083L51.2292 1.86454C53.6771 2.52079 55.6042 4.45829 56.2604 6.92704ZM22.6875 29.1666V30.0264L23.4348 29.6012L38.2994 21.1429L39.0631 20.7083L38.2994 20.2737L23.4348 11.8154L22.6875 11.3902V12.25V29.1666Z" fill="#FDC733" stroke="black"/>
</svg>
