<?xml version="1.0" standalone="no"?>
<!DOCTYPE svg PUBLIC "-//W3C//DTD SVG 20010904//EN"
 "http://www.w3.org/TR/2001/REC-SVG-20010904/DTD/svg10.dtd">
<svg version="1.0" xmlns="http://www.w3.org/2000/svg"
 width="794.000000pt" height="794.000000pt" viewBox="0 0 794.000000 794.000000"
 preserveAspectRatio="xMidYMid meet">
<metadata>
Created by potrace 1.14, written by Peter Selinger 2001-2017
</metadata>
<g transform="translate(0.000000,794.000000) scale(0.100000,-0.100000)"
fill="#000000" stroke="none">
<path d="M3899 6700 c-35 -14 -82 -37 -104 -51 -22 -14 -52 -30 -66 -36 -45
-20 -68 -61 -63 -118 4 -59 13 -140 19 -175 2 -14 9 -62 15 -107 6 -46 13 -95
15 -110 7 -54 15 -119 20 -158 3 -22 6 -49 9 -60 2 -11 7 -45 10 -76 4 -31 8
-65 10 -75 2 -11 7 -45 11 -78 3 -32 8 -68 10 -80 2 -11 6 -41 9 -66 8 -67 16
-131 21 -165 10 -75 16 -122 21 -150 2 -16 7 -55 10 -85 3 -30 8 -57 10 -59 7
-8 276 -6 281 2 5 8 6 15 17 118 4 31 8 65 10 75 2 11 7 48 11 84 3 36 8 76
10 90 2 14 7 50 10 80 3 30 8 66 10 80 2 14 7 48 10 75 12 103 15 131 19 150
2 11 7 49 11 85 3 36 8 76 10 90 2 14 7 48 10 75 3 28 8 68 10 90 12 84 15
112 20 160 3 28 8 57 10 65 4 15 17 130 18 160 2 42 -27 66 -143 123 -153 75
-195 82 -281 47z"/>
<path d="M419 6505 c-47 -178 -54 -357 -24 -550 10 -66 44 -181 72 -245 50
-115 147 -275 210 -347 15 -18 46 -54 68 -79 125 -145 294 -284 555 -457 30
-20 60 -40 65 -45 51 -39 443 -282 455 -282 6 0 10 -4 10 -10 0 -5 4 -10 9
-10 5 0 42 -19 83 -43 96 -57 175 -100 333 -182 72 -37 138 -75 148 -85 16
-15 23 -35 42 -113 2 -11 20 -83 39 -160 19 -78 53 -218 76 -312 23 -93 68
-280 101 -415 33 -135 62 -254 65 -265 5 -24 8 -40 29 -125 9 -36 18 -74 19
-85 2 -11 6 -27 9 -35 4 -12 40 -154 52 -210 2 -8 13 -55 25 -105 12 -49 23
-97 25 -105 2 -8 29 -118 60 -245 31 -126 61 -250 66 -275 6 -25 13 -53 15
-62 2 -10 6 -26 8 -35 2 -10 14 -56 26 -103 20 -79 32 -130 45 -188 3 -13 13
-49 21 -80 8 -32 17 -68 20 -82 3 -14 14 -58 25 -97 10 -40 19 -74 19 -76 0
-1 109 -2 242 -2 l243 0 1 50 c1 28 3 55 4 60 1 6 1 12 0 15 -1 3 -3 41 -5 85
-1 44 -6 150 -9 235 -7 145 -9 213 -21 515 -2 66 -7 188 -10 270 -4 83 -8 195
-10 250 -2 55 -6 183 -11 285 -4 102 -7 236 -8 297 -1 62 -3 113 -6 113 -3 0
-5 46 -6 103 -1 123 -13 462 -19 532 -2 28 -6 79 -9 115 -5 64 -14 146 -21
205 -2 17 -7 53 -10 80 -3 28 -8 64 -11 80 -3 17 -7 41 -9 55 -2 14 -8 50 -14
80 -6 30 -12 66 -15 80 -3 21 -20 100 -41 193 -2 10 -6 26 -9 35 -5 17 -12 47
-26 117 -4 22 -15 73 -24 113 -9 40 -16 77 -16 82 0 4 75 7 166 6 l166 -1 -7
75 c-4 41 -9 89 -11 105 -2 17 -6 55 -9 85 -3 30 -8 71 -10 90 -3 19 -7 58
-10 85 -3 28 -7 66 -10 85 -2 19 -7 58 -10 85 -3 28 -8 66 -10 85 -2 19 -7 60
-10 90 -3 30 -8 75 -11 100 -7 55 -15 127 -29 260 -3 30 -8 71 -11 90 -3 19
-8 55 -10 80 -14 152 -15 154 -62 93 -20 -26 -38 -50 -42 -53 -3 -3 -21 -25
-40 -50 -19 -25 -37 -47 -40 -50 -16 -16 -103 -156 -105 -170 -1 -3 -7 -23
-15 -45 -15 -45 -19 -179 -6 -270 4 -33 9 -62 11 -65 2 -3 6 -35 10 -70 3 -36
8 -72 11 -81 2 -9 7 -36 10 -60 3 -24 7 -51 8 -59 4 -20 17 -110 21 -140 1
-14 6 -47 9 -75 4 -27 9 -59 11 -70 11 -55 16 -137 9 -134 -9 4 -302 149 -675
334 -114 57 -217 109 -230 116 -13 7 -26 14 -29 14 -3 0 -162 79 -355 175
-192 95 -352 174 -355 175 -4 1 -866 428 -1162 576 -65 32 -119 56 -119 54z"/>
<path d="M7580 6502 c-18 -6 -157 -73 -910 -440 -30 -15 -58 -31 -61 -35 -3
-5 -8 -8 -10 -7 -2 1 -53 -22 -114 -51 -60 -29 -113 -52 -117 -51 -5 1 -8 -3
-8 -8 0 -6 -4 -10 -9 -10 -9 0 -496 -234 -521 -250 -8 -6 -26 -15 -40 -20 -23
-10 -445 -220 -916 -458 -110 -56 -204 -102 -208 -102 -7 0 -3 49 10 130 2 14
6 64 9 110 3 47 8 96 10 110 2 14 6 50 10 80 10 89 16 131 30 204 7 38 13 119
13 180 0 173 -31 283 -120 421 -29 46 -148 178 -155 172 -2 -2 -5 -13 -7 -24
-6 -29 -21 -142 -30 -228 -3 -27 -8 -66 -10 -85 -6 -39 -14 -105 -21 -165 -3
-22 -7 -57 -10 -77 -3 -20 -7 -56 -9 -80 -3 -24 -7 -59 -10 -78 -3 -19 -8 -56
-11 -82 -11 -103 -16 -144 -21 -168 -2 -14 -6 -50 -9 -80 -3 -30 -8 -71 -11
-90 -3 -19 -6 -48 -8 -65 -14 -121 -18 -153 -22 -177 -4 -19 -1 -28 8 -29 7
-1 83 -3 168 -4 85 -1 160 -3 166 -4 7 -1 1 -41 -18 -118 -15 -65 -30 -127
-32 -138 -2 -11 -9 -40 -15 -65 -5 -25 -12 -58 -15 -75 -3 -16 -10 -55 -16
-85 -12 -56 -13 -66 -24 -135 -4 -22 -9 -51 -11 -65 -3 -14 -7 -43 -10 -65 -3
-22 -8 -51 -10 -65 -5 -26 -10 -65 -20 -160 -14 -122 -13 -120 -30 -345 -2
-27 -7 -149 -9 -270 -8 -312 -17 -627 -21 -715 -2 -41 -6 -136 -10 -210 -3
-74 -7 -173 -9 -220 -12 -247 -17 -375 -21 -465 -2 -55 -6 -154 -9 -220 -3
-66 -8 -187 -11 -270 -3 -82 -8 -194 -10 -247 -5 -88 -3 -98 12 -98 22 -1 348
-1 424 0 l56 0 19 82 c22 101 21 97 23 101 2 1 5 13 7 27 3 14 9 43 15 65 6
22 13 47 14 55 2 8 13 56 25 105 12 50 24 98 26 108 1 10 12 51 23 91 11 40
22 83 25 97 2 13 14 64 26 113 12 49 23 94 24 100 1 6 5 20 9 31 3 11 8 31 11
45 3 14 15 63 26 110 12 47 24 96 26 110 3 14 7 33 10 42 3 9 7 25 9 35 5 21
64 260 70 286 3 9 7 25 9 35 2 9 18 76 35 147 34 142 40 166 41 177 1 4 6 22
11 40 11 37 17 60 25 102 2 16 7 32 9 36 2 3 6 17 9 31 2 13 23 101 46 194 23
94 44 178 46 188 2 9 6 27 10 40 3 12 7 31 9 42 41 186 118 485 131 511 17 35
20 37 209 134 77 40 152 79 167 87 15 8 30 19 33 24 4 5 10 7 15 4 4 -3 13 2
20 10 7 8 16 15 21 15 4 0 32 14 61 31 52 31 73 44 153 89 47 27 88 53 288
184 128 84 184 122 296 203 40 29 205 155 221 169 50 42 222 216 250 254 19
25 43 54 52 64 10 11 18 23 18 27 0 4 6 14 13 21 28 31 111 190 145 278 38
100 35 90 47 145 4 22 9 45 11 50 9 39 17 89 20 140 3 33 5 65 6 70 1 19 -12
207 -16 214 -2 3 -7 27 -10 53 -9 65 -18 86 -36 80z"/>
<path d="M7340 4478 c-272 -140 -1341 -677 -1479 -743 -145 -69 -209 -113
-261 -176 -50 -60 -73 -100 -85 -144 -5 -16 -10 -34 -11 -40 -5 -15 -24 -106
-28 -135 -9 -55 -39 -181 -80 -330 -52 -191 -62 -234 -49 -227 16 9 81 37 223
97 80 34 163 69 185 79 22 10 81 35 130 55 50 21 99 42 110 46 11 5 43 18 70
30 28 12 64 27 80 35 17 8 89 40 160 71 297 132 411 208 609 408 248 251 443
559 612 966 23 58 41 121 32 119 -2 0 -100 -50 -218 -111z"/>
<path d="M454 4557 c5 -29 37 -109 48 -121 4 -6 8 -16 8 -22 0 -7 17 -50 39
-96 21 -46 41 -90 45 -98 8 -20 88 -168 106 -199 45 -74 174 -266 181 -269 5
-2 9 -7 9 -12 0 -9 4 -15 106 -135 91 -107 264 -275 284 -275 5 0 10 -4 12 -8
5 -15 150 -108 223 -145 39 -19 104 -49 145 -67 41 -18 93 -40 115 -50 22 -10
90 -39 150 -64 61 -26 124 -53 140 -61 17 -7 118 -50 225 -95 107 -45 231 -97
274 -116 116 -49 116 -49 92 44 -8 29 -14 53 -15 55 0 1 -2 9 -4 17 -6 19 -46
179 -52 205 -2 11 -18 74 -35 140 -17 66 -43 165 -57 220 -32 122 -44 147 -85
178 -36 27 -236 130 -818 423 -206 104 -377 191 -380 194 -6 6 -666 337 -722
362 -38 17 -38 17 -34 -5z"/>
</g>
</svg>
